<svg id="comment" xmlns="http://www.w3.org/2000/svg" width="43.064" height="43.063" viewBox="0 0 43.064 43.063">
  <path id="Path_148438" data-name="Path 148438" d="M325.009,6.729h-3.784V2.524a2.524,2.524,0,1,0-5.047,0V4.884A2.929,2.929,0,0,1,314.1,7.7l-2.127.655v13.1c0,.033,0,.066,0,.1a3.968,3.968,0,0,0,2.806,1.162h10.234a3.785,3.785,0,0,0,3.785-3.785V10.514A3.785,3.785,0,0,0,325.009,6.729Z" transform="translate(-285.73 0)" fill="#fff"/>
  <path id="Path_148439" data-name="Path 148439" d="M225.785,95.981h-2.523A1.262,1.262,0,0,1,222,94.719V81.262A1.262,1.262,0,0,1,223.262,80h2.523a1.262,1.262,0,0,1,1.262,1.262V94.719A1.262,1.262,0,0,1,225.785,95.981Z" transform="translate(-203.328 -73.271)" fill="#fff"/>
  <path id="Path_148440" data-name="Path 148440" d="M29.045,187.345a6.442,6.442,0,0,1-3.8-1.228,3.775,3.775,0,0,1-2.788,1.228H19.934a3.785,3.785,0,0,1-3.785-3.785V177H1.262A1.262,1.262,0,0,0,0,178.262v25.614a1.3,1.3,0,0,0,.589,1.107,1.262,1.262,0,0,0,1.372-.018l4.729-3.153H33.223a1.262,1.262,0,0,0,1.262-1.262V187.345ZM6.308,183.308h7.149a1.262,1.262,0,1,1,0,2.523H6.308a1.262,1.262,0,0,1,0-2.523Zm21.868,13.878H6.308a1.262,1.262,0,0,1,0-2.523H28.177a1.262,1.262,0,0,1,0,2.523Zm0-5.677H6.308a1.262,1.262,0,0,1,0-2.523H28.177a1.262,1.262,0,1,1,0,2.523Z" transform="translate(0 -162.113)" fill="#fff"/>
</svg>
