<svg id="dote_1" xmlns="http://www.w3.org/2000/svg" width="185.366" height="184" viewBox="0 0 185.366 184">
  <circle id="Ellipse_794" data-name="Ellipse 794" cx="3.233" cy="3.233" r="3.233" transform="translate(0 0)" fill="#e6427a"/>
  <circle id="Ellipse_842" data-name="Ellipse 842" cx="2.694" cy="2.694" r="2.694" transform="translate(65.74 0)" fill="#e6427a"/>
  <circle id="Ellipse_890" data-name="Ellipse 890" cx="3.233" cy="3.233" r="3.233" transform="translate(130.403 0)" fill="#e6427a"/>
  <circle id="Ellipse_818" data-name="Ellipse 818" cx="2.694" cy="2.694" r="2.694" transform="translate(33.409 0)" fill="#e6427a"/>
  <circle id="Ellipse_845" data-name="Ellipse 845" cx="2.694" cy="2.694" r="2.694" transform="translate(98.071 0)" fill="#e6427a"/>
  <circle id="Ellipse_893" data-name="Ellipse 893" cx="3.233" cy="3.233" r="3.233" transform="translate(162.734 0)" fill="#e6427a"/>
  <circle id="Ellipse_806" data-name="Ellipse 806" cx="2.694" cy="2.694" r="2.694" transform="translate(17.243 0)" fill="#e6427a"/>
  <circle id="Ellipse_846" data-name="Ellipse 846" cx="2.694" cy="2.694" r="2.694" transform="translate(81.906 0)" fill="#e6427a"/>
  <circle id="Ellipse_894" data-name="Ellipse 894" cx="3.233" cy="3.233" r="3.233" transform="translate(146.568 0)" fill="#e6427a"/>
  <circle id="Ellipse_827" data-name="Ellipse 827" cx="2.694" cy="2.694" r="2.694" transform="translate(49.575 0)" fill="#e6427a"/>
  <circle id="Ellipse_869" data-name="Ellipse 869" cx="3.233" cy="3.233" r="3.233" transform="translate(114.237 0)" fill="#e6427a"/>
  <circle id="Ellipse_917" data-name="Ellipse 917" cx="3.233" cy="3.233" r="3.233" transform="translate(178.899 0)" fill="#e6427a"/>
  <circle id="Ellipse_800" data-name="Ellipse 800" cx="3.233" cy="3.233" r="3.233" transform="translate(0 64.558)" fill="#e6427a"/>
  <circle id="Ellipse_847" data-name="Ellipse 847" cx="2.694" cy="2.694" r="2.694" transform="translate(65.74 64.558)" fill="#e6427a"/>
  <circle id="Ellipse_895" data-name="Ellipse 895" cx="3.233" cy="3.233" r="3.233" transform="translate(130.403 64.558)" fill="#e6427a"/>
  <circle id="Ellipse_819" data-name="Ellipse 819" cx="2.694" cy="2.694" r="2.694" transform="translate(33.409 64.558)" fill="#e6427a"/>
  <circle id="Ellipse_848" data-name="Ellipse 848" cx="2.694" cy="2.694" r="2.694" transform="translate(98.071 64.558)" fill="#e6427a"/>
  <circle id="Ellipse_896" data-name="Ellipse 896" cx="3.233" cy="3.233" r="3.233" transform="translate(162.734 64.558)" fill="#e6427a"/>
  <circle id="Ellipse_807" data-name="Ellipse 807" cx="2.694" cy="2.694" r="2.694" transform="translate(17.243 64.558)" fill="#e6427a"/>
  <circle id="Ellipse_849" data-name="Ellipse 849" cx="2.694" cy="2.694" r="2.694" transform="translate(81.906 64.558)" fill="#e6427a"/>
  <circle id="Ellipse_897" data-name="Ellipse 897" cx="3.233" cy="3.233" r="3.233" transform="translate(146.568 64.558)" fill="#e6427a"/>
  <circle id="Ellipse_828" data-name="Ellipse 828" cx="2.694" cy="2.694" r="2.694" transform="translate(49.575 64.558)" fill="#e6427a"/>
  <circle id="Ellipse_870" data-name="Ellipse 870" cx="3.233" cy="3.233" r="3.233" transform="translate(114.237 64.558)" fill="#e6427a"/>
  <circle id="Ellipse_918" data-name="Ellipse 918" cx="3.233" cy="3.233" r="3.233" transform="translate(178.899 64.558)" fill="#e6427a"/>
  <circle id="Ellipse_802" data-name="Ellipse 802" cx="2.694" cy="2.694" r="2.694" transform="translate(0 146.332)" fill="#e6427a"/>
  <circle id="Ellipse_871" data-name="Ellipse 871" cx="2.694" cy="2.694" r="2.694" transform="translate(65.74 146.332)" fill="#e6427a"/>
  <circle id="Ellipse_919" data-name="Ellipse 919" cx="2.694" cy="2.694" r="2.694" transform="translate(130.403 146.332)" fill="#e6427a"/>
  <circle id="Ellipse_829" data-name="Ellipse 829" cx="2.694" cy="2.694" r="2.694" transform="translate(33.409 146.332)" fill="#e6427a"/>
  <circle id="Ellipse_872" data-name="Ellipse 872" cx="2.694" cy="2.694" r="2.694" transform="translate(98.071 146.332)" fill="#e6427a"/>
  <circle id="Ellipse_920" data-name="Ellipse 920" cx="2.694" cy="2.694" r="2.694" transform="translate(162.734 146.332)" fill="#e6427a"/>
  <circle id="Ellipse_815" data-name="Ellipse 815" cx="2.694" cy="2.694" r="2.694" transform="translate(17.243 146.332)" fill="#e6427a"/>
  <circle id="Ellipse_873" data-name="Ellipse 873" cx="2.694" cy="2.694" r="2.694" transform="translate(81.906 146.332)" fill="#e6427a"/>
  <circle id="Ellipse_921" data-name="Ellipse 921" cx="2.694" cy="2.694" r="2.694" transform="translate(146.568 146.332)" fill="#e6427a"/>
  <circle id="Ellipse_830" data-name="Ellipse 830" cx="2.694" cy="2.694" r="2.694" transform="translate(49.575 146.332)" fill="#e6427a"/>
  <circle id="Ellipse_874" data-name="Ellipse 874" cx="2.694" cy="2.694" r="2.694" transform="translate(114.237 146.332)" fill="#e6427a"/>
  <circle id="Ellipse_922" data-name="Ellipse 922" cx="2.694" cy="2.694" r="2.694" transform="translate(178.899 146.332)" fill="#e6427a"/>
  <circle id="Ellipse_795" data-name="Ellipse 795" cx="3.233" cy="3.233" r="3.233" transform="translate(0 16.166)" fill="#e6427a"/>
  <circle id="Ellipse_843" data-name="Ellipse 843" cx="2.694" cy="2.694" r="2.694" transform="translate(65.74 16.166)" fill="#e6427a"/>
  <circle id="Ellipse_891" data-name="Ellipse 891" cx="3.233" cy="3.233" r="3.233" transform="translate(130.403 16.166)" fill="#e6427a"/>
  <circle id="Ellipse_820" data-name="Ellipse 820" cx="2.694" cy="2.694" r="2.694" transform="translate(33.409 16.166)" fill="#e6427a"/>
  <circle id="Ellipse_850" data-name="Ellipse 850" cx="2.694" cy="2.694" r="2.694" transform="translate(98.071 16.166)" fill="#e6427a"/>
  <circle id="Ellipse_898" data-name="Ellipse 898" cx="3.233" cy="3.233" r="3.233" transform="translate(162.734 16.166)" fill="#e6427a"/>
  <circle id="Ellipse_808" data-name="Ellipse 808" cx="2.694" cy="2.694" r="2.694" transform="translate(17.243 16.166)" fill="#e6427a"/>
  <circle id="Ellipse_851" data-name="Ellipse 851" cx="2.694" cy="2.694" r="2.694" transform="translate(81.906 16.166)" fill="#e6427a"/>
  <circle id="Ellipse_899" data-name="Ellipse 899" cx="3.233" cy="3.233" r="3.233" transform="translate(146.568 16.166)" fill="#e6427a"/>
  <circle id="Ellipse_831" data-name="Ellipse 831" cx="2.694" cy="2.694" r="2.694" transform="translate(49.575 16.166)" fill="#e6427a"/>
  <circle id="Ellipse_875" data-name="Ellipse 875" cx="3.233" cy="3.233" r="3.233" transform="translate(114.237 16.166)" fill="#e6427a"/>
  <circle id="Ellipse_923" data-name="Ellipse 923" cx="3.233" cy="3.233" r="3.233" transform="translate(178.899 16.166)" fill="#e6427a"/>
  <circle id="Ellipse_799" data-name="Ellipse 799" cx="3.233" cy="3.233" r="3.233" transform="translate(0 80.697)" fill="#e6427a"/>
  <circle id="Ellipse_852" data-name="Ellipse 852" cx="2.694" cy="2.694" r="2.694" transform="translate(65.74 80.698)" fill="#e6427a"/>
  <circle id="Ellipse_900" data-name="Ellipse 900" cx="3.233" cy="3.233" r="3.233" transform="translate(130.403 80.697)" fill="#e6427a"/>
  <circle id="Ellipse_821" data-name="Ellipse 821" cx="2.694" cy="2.694" r="2.694" transform="translate(33.409 80.698)" fill="#e6427a"/>
  <circle id="Ellipse_853" data-name="Ellipse 853" cx="2.694" cy="2.694" r="2.694" transform="translate(98.071 80.698)" fill="#e6427a"/>
  <circle id="Ellipse_901" data-name="Ellipse 901" cx="3.233" cy="3.233" r="3.233" transform="translate(162.734 80.697)" fill="#e6427a"/>
  <circle id="Ellipse_809" data-name="Ellipse 809" cx="2.694" cy="2.694" r="2.694" transform="translate(17.243 80.698)" fill="#e6427a"/>
  <circle id="Ellipse_854" data-name="Ellipse 854" cx="2.694" cy="2.694" r="2.694" transform="translate(81.906 80.698)" fill="#e6427a"/>
  <circle id="Ellipse_902" data-name="Ellipse 902" cx="3.233" cy="3.233" r="3.233" transform="translate(146.568 80.697)" fill="#e6427a"/>
  <circle id="Ellipse_832" data-name="Ellipse 832" cx="2.694" cy="2.694" r="2.694" transform="translate(49.575 80.698)" fill="#e6427a"/>
  <circle id="Ellipse_876" data-name="Ellipse 876" cx="3.233" cy="3.233" r="3.233" transform="translate(114.237 80.697)" fill="#e6427a"/>
  <circle id="Ellipse_924" data-name="Ellipse 924" cx="3.233" cy="3.233" r="3.233" transform="translate(178.899 80.697)" fill="#e6427a"/>
  <circle id="Ellipse_803" data-name="Ellipse 803" cx="2.694" cy="2.694" r="2.694" transform="translate(0 162.446)" fill="#e6427a"/>
  <circle id="Ellipse_882" data-name="Ellipse 882" cx="2.694" cy="2.694" r="2.694" transform="translate(65.74 162.446)" fill="#e6427a"/>
  <circle id="Ellipse_930" data-name="Ellipse 930" cx="2.694" cy="2.694" r="2.694" transform="translate(130.403 162.446)" fill="#e6427a"/>
  <circle id="Ellipse_833" data-name="Ellipse 833" cx="2.694" cy="2.694" r="2.694" transform="translate(33.409 162.446)" fill="#e6427a"/>
  <circle id="Ellipse_883" data-name="Ellipse 883" cx="2.694" cy="2.694" r="2.694" transform="translate(98.071 162.446)" fill="#e6427a"/>
  <circle id="Ellipse_931" data-name="Ellipse 931" cx="2.694" cy="2.694" r="2.694" transform="translate(162.734 162.446)" fill="#e6427a"/>
  <circle id="Ellipse_816" data-name="Ellipse 816" cx="2.694" cy="2.694" r="2.694" transform="translate(17.243 162.446)" fill="#e6427a"/>
  <circle id="Ellipse_884" data-name="Ellipse 884" cx="2.694" cy="2.694" r="2.694" transform="translate(81.906 162.446)" fill="#e6427a"/>
  <circle id="Ellipse_932" data-name="Ellipse 932" cx="2.694" cy="2.694" r="2.694" transform="translate(146.568 162.446)" fill="#e6427a"/>
  <circle id="Ellipse_834" data-name="Ellipse 834" cx="2.694" cy="2.694" r="2.694" transform="translate(49.575 162.446)" fill="#e6427a"/>
  <circle id="Ellipse_885" data-name="Ellipse 885" cx="2.694" cy="2.694" r="2.694" transform="translate(114.237 162.446)" fill="#e6427a"/>
  <circle id="Ellipse_933" data-name="Ellipse 933" cx="2.694" cy="2.694" r="2.694" transform="translate(178.899 162.446)" fill="#e6427a"/>
  <circle id="Ellipse_796" data-name="Ellipse 796" cx="3.233" cy="3.233" r="3.233" transform="translate(0 32.279)" fill="#e6427a"/>
  <circle id="Ellipse_844" data-name="Ellipse 844" cx="2.694" cy="2.694" r="2.694" transform="translate(65.74 32.279)" fill="#e6427a"/>
  <circle id="Ellipse_892" data-name="Ellipse 892" cx="3.233" cy="3.233" r="3.233" transform="translate(130.403 32.279)" fill="#e6427a"/>
  <circle id="Ellipse_822" data-name="Ellipse 822" cx="2.694" cy="2.694" r="2.694" transform="translate(33.409 32.279)" fill="#e6427a"/>
  <circle id="Ellipse_855" data-name="Ellipse 855" cx="2.694" cy="2.694" r="2.694" transform="translate(98.071 32.279)" fill="#e6427a"/>
  <circle id="Ellipse_903" data-name="Ellipse 903" cx="3.233" cy="3.233" r="3.233" transform="translate(162.734 32.279)" fill="#e6427a"/>
  <circle id="Ellipse_810" data-name="Ellipse 810" cx="2.694" cy="2.694" r="2.694" transform="translate(17.243 32.279)" fill="#e6427a"/>
  <circle id="Ellipse_856" data-name="Ellipse 856" cx="2.694" cy="2.694" r="2.694" transform="translate(81.906 32.279)" fill="#e6427a"/>
  <circle id="Ellipse_904" data-name="Ellipse 904" cx="3.233" cy="3.233" r="3.233" transform="translate(146.568 32.279)" fill="#e6427a"/>
  <circle id="Ellipse_835" data-name="Ellipse 835" cx="2.694" cy="2.694" r="2.694" transform="translate(49.575 32.279)" fill="#e6427a"/>
  <circle id="Ellipse_877" data-name="Ellipse 877" cx="3.233" cy="3.233" r="3.233" transform="translate(114.237 32.279)" fill="#e6427a"/>
  <circle id="Ellipse_925" data-name="Ellipse 925" cx="3.233" cy="3.233" r="3.233" transform="translate(178.899 32.279)" fill="#e6427a"/>
  <circle id="Ellipse_798" data-name="Ellipse 798" cx="2.694" cy="2.694" r="2.694" transform="translate(0 97.914)" fill="#e6427a"/>
  <circle id="Ellipse_857" data-name="Ellipse 857" cx="2.694" cy="2.694" r="2.694" transform="translate(65.74 97.914)" fill="#e6427a"/>
  <circle id="Ellipse_905" data-name="Ellipse 905" cx="2.694" cy="2.694" r="2.694" transform="translate(130.403 97.914)" fill="#e6427a"/>
  <circle id="Ellipse_824" data-name="Ellipse 824" cx="2.694" cy="2.694" r="2.694" transform="translate(33.409 97.914)" fill="#e6427a"/>
  <circle id="Ellipse_858" data-name="Ellipse 858" cx="2.694" cy="2.694" r="2.694" transform="translate(98.071 97.914)" fill="#e6427a"/>
  <circle id="Ellipse_906" data-name="Ellipse 906" cx="2.694" cy="2.694" r="2.694" transform="translate(162.734 97.914)" fill="#e6427a"/>
  <circle id="Ellipse_811" data-name="Ellipse 811" cx="2.694" cy="2.694" r="2.694" transform="translate(17.243 97.914)" fill="#e6427a"/>
  <circle id="Ellipse_859" data-name="Ellipse 859" cx="2.694" cy="2.694" r="2.694" transform="translate(81.906 97.914)" fill="#e6427a"/>
  <circle id="Ellipse_907" data-name="Ellipse 907" cx="2.694" cy="2.694" r="2.694" transform="translate(146.568 97.914)" fill="#e6427a"/>
  <circle id="Ellipse_836" data-name="Ellipse 836" cx="2.694" cy="2.694" r="2.694" transform="translate(49.575 97.914)" fill="#e6427a"/>
  <circle id="Ellipse_878" data-name="Ellipse 878" cx="2.694" cy="2.694" r="2.694" transform="translate(114.237 97.914)" fill="#e6427a"/>
  <circle id="Ellipse_926" data-name="Ellipse 926" cx="2.694" cy="2.694" r="2.694" transform="translate(178.899 97.914)" fill="#e6427a"/>
  <circle id="Ellipse_805" data-name="Ellipse 805" cx="2.694" cy="2.694" r="2.694" transform="translate(0 178.611)" fill="#e6427a"/>
  <circle id="Ellipse_886" data-name="Ellipse 886" cx="2.694" cy="2.694" r="2.694" transform="translate(65.74 178.611)" fill="#e6427a"/>
  <circle id="Ellipse_934" data-name="Ellipse 934" cx="2.694" cy="2.694" r="2.694" transform="translate(130.403 178.611)" fill="#e6427a"/>
  <circle id="Ellipse_840" data-name="Ellipse 840" cx="2.694" cy="2.694" r="2.694" transform="translate(33.409 178.611)" fill="#e6427a"/>
  <circle id="Ellipse_887" data-name="Ellipse 887" cx="2.694" cy="2.694" r="2.694" transform="translate(98.071 178.611)" fill="#e6427a"/>
  <circle id="Ellipse_935" data-name="Ellipse 935" cx="2.694" cy="2.694" r="2.694" transform="translate(162.734 178.611)" fill="#e6427a"/>
  <circle id="Ellipse_817" data-name="Ellipse 817" cx="2.694" cy="2.694" r="2.694" transform="translate(17.243 178.611)" fill="#e6427a"/>
  <circle id="Ellipse_888" data-name="Ellipse 888" cx="2.694" cy="2.694" r="2.694" transform="translate(81.906 178.611)" fill="#e6427a"/>
  <circle id="Ellipse_936" data-name="Ellipse 936" cx="2.694" cy="2.694" r="2.694" transform="translate(146.568 178.611)" fill="#e6427a"/>
  <circle id="Ellipse_841" data-name="Ellipse 841" cx="2.694" cy="2.694" r="2.694" transform="translate(49.575 178.611)" fill="#e6427a"/>
  <circle id="Ellipse_889" data-name="Ellipse 889" cx="2.694" cy="2.694" r="2.694" transform="translate(114.237 178.611)" fill="#e6427a"/>
  <circle id="Ellipse_937" data-name="Ellipse 937" cx="2.694" cy="2.694" r="2.694" transform="translate(178.899 178.611)" fill="#e6427a"/>
  <circle id="Ellipse_797" data-name="Ellipse 797" cx="3.233" cy="3.233" r="3.233" transform="translate(0 48.418)" fill="#e6427a"/>
  <circle id="Ellipse_860" data-name="Ellipse 860" cx="2.694" cy="2.694" r="2.694" transform="translate(65.74 48.419)" fill="#e6427a"/>
  <circle id="Ellipse_908" data-name="Ellipse 908" cx="3.233" cy="3.233" r="3.233" transform="translate(130.403 48.418)" fill="#e6427a"/>
  <circle id="Ellipse_823" data-name="Ellipse 823" cx="2.694" cy="2.694" r="2.694" transform="translate(33.409 48.419)" fill="#e6427a"/>
  <circle id="Ellipse_861" data-name="Ellipse 861" cx="2.694" cy="2.694" r="2.694" transform="translate(98.071 48.419)" fill="#e6427a"/>
  <circle id="Ellipse_909" data-name="Ellipse 909" cx="3.233" cy="3.233" r="3.233" transform="translate(162.734 48.418)" fill="#e6427a"/>
  <circle id="Ellipse_812" data-name="Ellipse 812" cx="2.694" cy="2.694" r="2.694" transform="translate(17.243 48.419)" fill="#e6427a"/>
  <circle id="Ellipse_862" data-name="Ellipse 862" cx="2.694" cy="2.694" r="2.694" transform="translate(81.906 48.419)" fill="#e6427a"/>
  <circle id="Ellipse_910" data-name="Ellipse 910" cx="3.233" cy="3.233" r="3.233" transform="translate(146.568 48.418)" fill="#e6427a"/>
  <circle id="Ellipse_837" data-name="Ellipse 837" cx="2.694" cy="2.694" r="2.694" transform="translate(49.575 48.419)" fill="#e6427a"/>
  <circle id="Ellipse_879" data-name="Ellipse 879" cx="3.233" cy="3.233" r="3.233" transform="translate(114.237 48.418)" fill="#e6427a"/>
  <circle id="Ellipse_927" data-name="Ellipse 927" cx="3.233" cy="3.233" r="3.233" transform="translate(178.899 48.418)" fill="#e6427a"/>
  <circle id="Ellipse_804" data-name="Ellipse 804" cx="2.694" cy="2.694" r="2.694" transform="translate(0 130.193)" fill="#e6427a"/>
  <circle id="Ellipse_866" data-name="Ellipse 866" cx="2.694" cy="2.694" r="2.694" transform="translate(65.74 130.193)" fill="#e6427a"/>
  <circle id="Ellipse_914" data-name="Ellipse 914" cx="2.694" cy="2.694" r="2.694" transform="translate(130.403 130.193)" fill="#e6427a"/>
  <circle id="Ellipse_825" data-name="Ellipse 825" cx="2.694" cy="2.694" r="2.694" transform="translate(33.409 130.193)" fill="#e6427a"/>
  <circle id="Ellipse_867" data-name="Ellipse 867" cx="2.694" cy="2.694" r="2.694" transform="translate(98.071 130.193)" fill="#e6427a"/>
  <circle id="Ellipse_915" data-name="Ellipse 915" cx="2.694" cy="2.694" r="2.694" transform="translate(162.734 130.193)" fill="#e6427a"/>
  <circle id="Ellipse_813" data-name="Ellipse 813" cx="2.694" cy="2.694" r="2.694" transform="translate(17.243 130.193)" fill="#e6427a"/>
  <circle id="Ellipse_868" data-name="Ellipse 868" cx="2.694" cy="2.694" r="2.694" transform="translate(81.906 130.193)" fill="#e6427a"/>
  <circle id="Ellipse_916" data-name="Ellipse 916" cx="2.694" cy="2.694" r="2.694" transform="translate(146.568 130.193)" fill="#e6427a"/>
  <circle id="Ellipse_838" data-name="Ellipse 838" cx="2.694" cy="2.694" r="2.694" transform="translate(49.575 130.193)" fill="#e6427a"/>
  <circle id="Ellipse_880" data-name="Ellipse 880" cx="2.694" cy="2.694" r="2.694" transform="translate(114.237 130.193)" fill="#e6427a"/>
  <circle id="Ellipse_928" data-name="Ellipse 928" cx="2.694" cy="2.694" r="2.694" transform="translate(178.899 130.193)" fill="#e6427a"/>
  <circle id="Ellipse_801" data-name="Ellipse 801" cx="2.694" cy="2.694" r="2.694" transform="translate(0 114.053)" fill="#e6427a"/>
  <circle id="Ellipse_863" data-name="Ellipse 863" cx="2.694" cy="2.694" r="2.694" transform="translate(65.74 114.053)" fill="#e6427a"/>
  <circle id="Ellipse_911" data-name="Ellipse 911" cx="2.694" cy="2.694" r="2.694" transform="translate(130.403 114.053)" fill="#e6427a"/>
  <circle id="Ellipse_826" data-name="Ellipse 826" cx="2.694" cy="2.694" r="2.694" transform="translate(33.409 114.053)" fill="#e6427a"/>
  <circle id="Ellipse_864" data-name="Ellipse 864" cx="2.694" cy="2.694" r="2.694" transform="translate(98.071 114.053)" fill="#e6427a"/>
  <circle id="Ellipse_912" data-name="Ellipse 912" cx="2.694" cy="2.694" r="2.694" transform="translate(162.734 114.053)" fill="#e6427a"/>
  <circle id="Ellipse_814" data-name="Ellipse 814" cx="2.694" cy="2.694" r="2.694" transform="translate(17.243 114.053)" fill="#e6427a"/>
  <circle id="Ellipse_865" data-name="Ellipse 865" cx="2.694" cy="2.694" r="2.694" transform="translate(81.906 114.053)" fill="#e6427a"/>
  <circle id="Ellipse_913" data-name="Ellipse 913" cx="2.694" cy="2.694" r="2.694" transform="translate(146.568 114.053)" fill="#e6427a"/>
  <circle id="Ellipse_839" data-name="Ellipse 839" cx="2.694" cy="2.694" r="2.694" transform="translate(49.575 114.053)" fill="#e6427a"/>
  <circle id="Ellipse_881" data-name="Ellipse 881" cx="2.694" cy="2.694" r="2.694" transform="translate(114.237 114.053)" fill="#e6427a"/>
  <circle id="Ellipse_929" data-name="Ellipse 929" cx="2.694" cy="2.694" r="2.694" transform="translate(178.899 114.053)" fill="#e6427a"/>
</svg>
