<svg xmlns="http://www.w3.org/2000/svg" width="66.498" height="66.498" viewBox="0 0 66.498 66.498">
  <path id="dote_4" d="M549.78,799.334a2.375,2.375,0,1,0-2.375,2.375A2.375,2.375,0,0,0,549.78,799.334Zm2.375,2.375a2.375,2.375,0,1,1,2.375-2.375A2.375,2.375,0,0,1,552.155,801.709Zm4.75,0a2.375,2.375,0,1,1,2.375-2.375A2.375,2.375,0,0,1,556.9,801.709Zm4.75,0a2.375,2.375,0,1,1,2.375-2.375A2.375,2.375,0,0,1,561.655,801.709Zm4.75,0a2.375,2.375,0,1,1,2.375-2.375A2.375,2.375,0,0,1,566.4,801.709Zm4.75,0a2.375,2.375,0,1,1,2.375-2.375A2.375,2.375,0,0,1,571.154,801.709Zm4.75,0a2.375,2.375,0,1,1,2.375-2.375A2.375,2.375,0,0,1,575.9,801.709Zm4.75,0a2.375,2.375,0,1,1,2.375-2.375A2.375,2.375,0,0,1,580.654,801.709Zm4.75,0a2.375,2.375,0,1,1,2.375-2.375A2.375,2.375,0,0,1,585.4,801.709Zm4.75,0a2.375,2.375,0,1,1,2.375-2.375A2.375,2.375,0,0,1,590.154,801.709Zm4.75,0a2.375,2.375,0,1,1,2.375-2.375A2.375,2.375,0,0,1,594.9,801.709Zm-49.874,2.375a2.375,2.375,0,1,1,2.375,2.375A2.375,2.375,0,0,1,545.03,804.084Zm7.125-2.375a2.375,2.375,0,1,1-2.375,2.375A2.375,2.375,0,0,1,552.155,801.709Zm4.75,0a2.375,2.375,0,1,1-2.375,2.375A2.375,2.375,0,0,1,556.9,801.709Zm4.75,0a2.375,2.375,0,1,1-2.375,2.375A2.375,2.375,0,0,1,561.655,801.709Zm4.75,0a2.375,2.375,0,1,1-2.375,2.375A2.375,2.375,0,0,1,566.4,801.709Zm4.75,0a2.375,2.375,0,1,1-2.375,2.375A2.375,2.375,0,0,1,571.154,801.709Zm4.75,0a2.375,2.375,0,1,1-2.375,2.375A2.375,2.375,0,0,1,575.9,801.709Zm4.75,0a2.375,2.375,0,1,1-2.375,2.375A2.375,2.375,0,0,1,580.654,801.709Zm4.75,0a2.375,2.375,0,1,1-2.375,2.375A2.375,2.375,0,0,1,585.4,801.709Zm4.75,0a2.375,2.375,0,1,1-2.375,2.375A2.375,2.375,0,0,1,590.154,801.709Zm4.75,0a2.375,2.375,0,1,1-2.375,2.375A2.375,2.375,0,0,1,594.9,801.709Zm-45.124,7.125a2.375,2.375,0,1,1-2.375-2.375A2.375,2.375,0,0,1,549.78,808.834Zm2.375-2.375a2.375,2.375,0,1,1-2.375,2.375A2.375,2.375,0,0,1,552.155,806.459Zm4.75,0a2.375,2.375,0,1,1-2.375,2.375A2.375,2.375,0,0,1,556.9,806.459Zm4.75,0a2.375,2.375,0,1,1-2.375,2.375A2.375,2.375,0,0,1,561.655,806.459Zm4.75,0a2.375,2.375,0,1,1-2.375,2.375A2.375,2.375,0,0,1,566.4,806.459Zm4.75,0a2.375,2.375,0,1,1-2.375,2.375A2.375,2.375,0,0,1,571.154,806.459Zm4.75,0a2.375,2.375,0,1,1-2.375,2.375A2.375,2.375,0,0,1,575.9,806.459Zm4.75,0a2.375,2.375,0,1,1-2.375,2.375A2.375,2.375,0,0,1,580.654,806.459Zm4.75,0a2.375,2.375,0,1,1-2.375,2.375A2.375,2.375,0,0,1,585.4,806.459Zm4.75,0a2.375,2.375,0,1,1-2.375,2.375A2.375,2.375,0,0,1,590.154,806.459Zm4.75,0a2.375,2.375,0,1,1-2.375,2.375A2.375,2.375,0,0,1,594.9,806.459Zm11.875-59.374a2.375,2.375,0,1,1,2.375,2.375A2.375,2.375,0,0,1,606.778,747.085Zm0,4.75a2.375,2.375,0,1,1,2.375,2.375A2.375,2.375,0,0,1,606.778,751.835Zm0,4.75a2.375,2.375,0,1,1,2.375,2.375A2.375,2.375,0,0,1,606.778,756.585Zm0,4.75a2.375,2.375,0,1,1,2.375,2.375A2.375,2.375,0,0,1,606.778,761.335Zm0,4.75a2.375,2.375,0,1,1,2.375,2.375A2.375,2.375,0,0,1,606.778,766.085Zm0,4.75a2.375,2.375,0,1,1,2.375,2.375A2.375,2.375,0,0,1,606.778,770.835Zm0,4.75a2.375,2.375,0,1,1,2.375,2.375A2.375,2.375,0,0,1,606.778,775.584Zm0,4.75a2.375,2.375,0,1,1,2.375,2.375A2.375,2.375,0,0,1,606.778,780.334Zm0,4.75a2.375,2.375,0,1,1,2.375,2.375A2.375,2.375,0,0,1,606.778,785.084Zm0,4.75a2.375,2.375,0,1,1,2.375,2.375A2.375,2.375,0,0,1,606.778,789.834Zm0,4.75a2.375,2.375,0,1,1,2.375,2.375A2.375,2.375,0,0,1,606.778,794.584Zm0,4.75a2.375,2.375,0,1,1,2.375,2.375A2.375,2.375,0,0,1,606.778,799.334Zm0,4.75a2.375,2.375,0,1,1,2.375,2.375A2.375,2.375,0,0,1,606.778,804.084Zm2.375,2.375a2.375,2.375,0,1,1-2.375,2.375A2.375,2.375,0,0,1,609.153,806.459Zm-4.75-57a2.375,2.375,0,1,1,2.375-2.375A2.375,2.375,0,0,1,604.4,749.46Zm-2.375,2.375a2.375,2.375,0,1,1,2.375,2.375A2.375,2.375,0,0,1,602.029,751.835Zm0,4.75a2.375,2.375,0,1,1,2.375,2.375A2.375,2.375,0,0,1,602.029,756.585Zm0,4.75a2.375,2.375,0,1,1,2.375,2.375A2.375,2.375,0,0,1,602.029,761.335Zm0,4.75a2.375,2.375,0,1,1,2.375,2.375A2.375,2.375,0,0,1,602.029,766.085Zm0,4.75a2.375,2.375,0,1,1,2.375,2.375A2.375,2.375,0,0,1,602.029,770.835Zm0,4.75a2.375,2.375,0,1,1,2.375,2.375A2.375,2.375,0,0,1,602.029,775.584Zm0,4.75a2.375,2.375,0,1,1,2.375,2.375A2.375,2.375,0,0,1,602.029,780.334Zm0,4.75a2.375,2.375,0,1,1,2.375,2.375A2.375,2.375,0,0,1,602.029,785.084Zm0,4.75a2.375,2.375,0,1,1,2.375,2.375A2.375,2.375,0,0,1,602.029,789.834Zm0,4.75a2.375,2.375,0,1,1,2.375,2.375A2.375,2.375,0,0,1,602.029,794.584Zm0,4.75a2.375,2.375,0,1,1,2.375,2.375A2.375,2.375,0,0,1,602.029,799.334Zm2.375,2.375a2.375,2.375,0,1,1-2.375,2.375A2.375,2.375,0,0,1,604.4,801.709Zm0,4.75a2.375,2.375,0,1,1-2.375,2.375A2.375,2.375,0,0,1,604.4,806.459Zm-4.75-57a2.375,2.375,0,1,1,2.375-2.375A2.375,2.375,0,0,1,599.654,749.46Zm2.375,2.375a2.375,2.375,0,1,1-2.375-2.375A2.375,2.375,0,0,1,602.029,751.835Zm0,4.75a2.375,2.375,0,1,1-2.375-2.375A2.375,2.375,0,0,1,602.029,756.585Zm0,4.75a2.375,2.375,0,1,1-2.375-2.375A2.375,2.375,0,0,1,602.029,761.335Zm0,4.75a2.375,2.375,0,1,1-2.375-2.375A2.375,2.375,0,0,1,602.029,766.085Zm0,4.75a2.375,2.375,0,1,1-2.375-2.375A2.375,2.375,0,0,1,602.029,770.835Zm0,4.75a2.375,2.375,0,1,1-2.375-2.375A2.375,2.375,0,0,1,602.029,775.584Zm0,4.75a2.375,2.375,0,1,1-2.375-2.375A2.375,2.375,0,0,1,602.029,780.334Zm0,4.75a2.375,2.375,0,1,1-2.375-2.375A2.375,2.375,0,0,1,602.029,785.084Zm0,4.75a2.375,2.375,0,1,1-2.375-2.375A2.375,2.375,0,0,1,602.029,789.834Zm0,4.75a2.375,2.375,0,1,1-2.375-2.375A2.375,2.375,0,0,1,602.029,794.584Zm0,4.75a2.375,2.375,0,1,1-2.375-2.375A2.375,2.375,0,0,1,602.029,799.334Zm-2.375,2.375a2.375,2.375,0,1,1-2.375,2.375A2.375,2.375,0,0,1,599.654,801.709Zm0,4.75a2.375,2.375,0,1,1-2.375,2.375A2.375,2.375,0,0,1,599.654,806.459Z" transform="translate(-545.03 -744.711)" fill="#e6427a"/>
</svg>
