<svg xmlns="http://www.w3.org/2000/svg" width="99.856" height="99.855" viewBox="0 0 99.856 99.855">
  <path id="dote_3" d="M637.753,762.542a3.566,3.566,0,1,0,3.566-3.566A3.566,3.566,0,0,0,637.753,762.542Zm-3.566-3.566a3.566,3.566,0,1,1-3.566,3.566A3.566,3.566,0,0,1,634.187,758.975Zm-7.133,0a3.566,3.566,0,1,1-3.566,3.566A3.566,3.566,0,0,1,627.055,758.975Zm-7.133,0a3.566,3.566,0,1,1-3.566,3.566A3.566,3.566,0,0,1,619.922,758.975Zm-7.133,0a3.566,3.566,0,1,1-3.566,3.566A3.566,3.566,0,0,1,612.789,758.975Zm-7.133,0a3.566,3.566,0,1,1-3.566,3.566A3.566,3.566,0,0,1,605.657,758.975Zm-7.133,0a3.566,3.566,0,1,1-3.566,3.566A3.567,3.567,0,0,1,598.524,758.975Zm-7.133,0a3.566,3.566,0,1,1-3.566,3.566A3.566,3.566,0,0,1,591.392,758.975Zm-7.133,0a3.566,3.566,0,1,1-3.566,3.566A3.566,3.566,0,0,1,584.259,758.975Zm-7.133,0a3.566,3.566,0,1,1-3.566,3.566A3.567,3.567,0,0,1,577.127,758.975Zm-7.133,0a3.566,3.566,0,1,1-3.566,3.566A3.566,3.566,0,0,1,569.994,758.975Zm74.892-3.566a3.566,3.566,0,1,1-3.566-3.566A3.566,3.566,0,0,1,644.886,755.409Zm-10.7,3.566a3.566,3.566,0,1,1,3.566-3.566A3.567,3.567,0,0,1,634.187,758.975Zm-7.133,0a3.566,3.566,0,1,1,3.566-3.566A3.566,3.566,0,0,1,627.055,758.975Zm-7.133,0a3.566,3.566,0,1,1,3.566-3.566A3.566,3.566,0,0,1,619.922,758.975Zm-7.133,0a3.566,3.566,0,1,1,3.566-3.566A3.567,3.567,0,0,1,612.789,758.975Zm-7.133,0a3.566,3.566,0,1,1,3.566-3.566A3.566,3.566,0,0,1,605.657,758.975Zm-7.133,0a3.566,3.566,0,1,1,3.566-3.566A3.566,3.566,0,0,1,598.524,758.975Zm-7.133,0a3.566,3.566,0,1,1,3.566-3.566A3.567,3.567,0,0,1,591.392,758.975Zm-7.133,0a3.566,3.566,0,1,1,3.566-3.566A3.566,3.566,0,0,1,584.259,758.975Zm-7.133,0a3.566,3.566,0,1,1,3.566-3.566A3.566,3.566,0,0,1,577.127,758.975Zm-7.133,0a3.566,3.566,0,1,1,3.566-3.566A3.567,3.567,0,0,1,569.994,758.975Zm67.759-10.7a3.566,3.566,0,1,1,3.566,3.566A3.566,3.566,0,0,1,637.753,748.276Zm-3.566,3.566a3.566,3.566,0,1,1,3.566-3.566A3.567,3.567,0,0,1,634.187,751.843Zm-7.133,0a3.566,3.566,0,1,1,3.566-3.566A3.566,3.566,0,0,1,627.055,751.843Zm-7.133,0a3.566,3.566,0,1,1,3.566-3.566A3.566,3.566,0,0,1,619.922,751.843Zm-7.133,0a3.566,3.566,0,1,1,3.566-3.566A3.567,3.567,0,0,1,612.789,751.843Zm-7.133,0a3.566,3.566,0,1,1,3.566-3.566A3.566,3.566,0,0,1,605.657,751.843Zm-7.133,0a3.566,3.566,0,1,1,3.566-3.566A3.566,3.566,0,0,1,598.524,751.843Zm-7.133,0a3.566,3.566,0,1,1,3.566-3.566A3.567,3.567,0,0,1,591.392,751.843Zm-7.133,0a3.566,3.566,0,1,1,3.566-3.566A3.566,3.566,0,0,1,584.259,751.843Zm-7.133,0a3.566,3.566,0,1,1,3.566-3.566A3.566,3.566,0,0,1,577.127,751.843Zm-7.133,0a3.566,3.566,0,1,1,3.566-3.566A3.567,3.567,0,0,1,569.994,751.843ZM552.163,841a3.566,3.566,0,1,1-3.566-3.566A3.566,3.566,0,0,1,552.163,841Zm0-7.133A3.566,3.566,0,1,1,548.6,830.3,3.566,3.566,0,0,1,552.163,833.868Zm0-7.133a3.566,3.566,0,1,1-3.566-3.566A3.566,3.566,0,0,1,552.163,826.735Zm0-7.133a3.566,3.566,0,1,1-3.566-3.566A3.566,3.566,0,0,1,552.163,819.6Zm0-7.133A3.566,3.566,0,1,1,548.6,808.9,3.566,3.566,0,0,1,552.163,812.47Zm0-7.133a3.566,3.566,0,1,1-3.566-3.566A3.566,3.566,0,0,1,552.163,805.337Zm0-7.133a3.566,3.566,0,1,1-3.566-3.566A3.566,3.566,0,0,1,552.163,798.2Zm0-7.133a3.566,3.566,0,1,1-3.566-3.566A3.566,3.566,0,0,1,552.163,791.072Zm0-7.133a3.566,3.566,0,1,1-3.566-3.566A3.566,3.566,0,0,1,552.163,783.939Zm0-7.133a3.566,3.566,0,1,1-3.566-3.566A3.566,3.566,0,0,1,552.163,776.807Zm0-7.133a3.566,3.566,0,1,1-3.566-3.566A3.566,3.566,0,0,1,552.163,769.674Zm0-7.133a3.566,3.566,0,1,1-3.566-3.566A3.566,3.566,0,0,1,552.163,762.542Zm0-7.133a3.566,3.566,0,1,1-3.566-3.566A3.566,3.566,0,0,1,552.163,755.409Zm-3.566-3.566a3.566,3.566,0,1,1,3.566-3.566A3.567,3.567,0,0,1,548.6,751.843Zm7.133,85.591A3.566,3.566,0,1,1,552.163,841,3.567,3.567,0,0,1,555.729,837.434Zm3.566-3.566a3.566,3.566,0,1,1-3.566-3.566A3.567,3.567,0,0,1,559.3,833.868Zm0-7.133a3.566,3.566,0,1,1-3.566-3.566A3.567,3.567,0,0,1,559.3,826.735Zm0-7.133a3.566,3.566,0,1,1-3.566-3.566A3.567,3.567,0,0,1,559.3,819.6Zm0-7.133a3.566,3.566,0,1,1-3.566-3.566A3.567,3.567,0,0,1,559.3,812.47Zm0-7.133a3.566,3.566,0,1,1-3.566-3.566A3.567,3.567,0,0,1,559.3,805.337Zm0-7.133a3.566,3.566,0,1,1-3.566-3.566A3.567,3.567,0,0,1,559.3,798.2Zm0-7.133a3.566,3.566,0,1,1-3.566-3.566A3.567,3.567,0,0,1,559.3,791.072Zm0-7.133a3.566,3.566,0,1,1-3.566-3.566A3.567,3.567,0,0,1,559.3,783.939Zm0-7.133a3.566,3.566,0,1,1-3.566-3.566A3.567,3.567,0,0,1,559.3,776.807Zm0-7.133a3.566,3.566,0,1,1-3.566-3.566A3.567,3.567,0,0,1,559.3,769.674Zm0-7.133a3.566,3.566,0,1,1-3.566-3.566A3.567,3.567,0,0,1,559.3,762.542Zm-3.566-3.566a3.566,3.566,0,1,1,3.566-3.566A3.566,3.566,0,0,1,555.729,758.975Zm0-7.133a3.566,3.566,0,1,1,3.566-3.566A3.566,3.566,0,0,1,555.729,751.843Zm7.133,85.591A3.566,3.566,0,1,1,559.3,841,3.566,3.566,0,0,1,562.861,837.434Zm-3.566-3.566a3.566,3.566,0,1,1,3.566,3.566A3.566,3.566,0,0,1,559.3,833.868Zm0-7.133a3.566,3.566,0,1,1,3.566,3.566A3.566,3.566,0,0,1,559.3,826.735Zm0-7.133a3.566,3.566,0,1,1,3.566,3.566A3.566,3.566,0,0,1,559.3,819.6Zm0-7.133a3.566,3.566,0,1,1,3.566,3.566A3.566,3.566,0,0,1,559.3,812.47Zm0-7.133a3.566,3.566,0,1,1,3.566,3.566A3.566,3.566,0,0,1,559.3,805.337Zm0-7.133a3.566,3.566,0,1,1,3.566,3.566A3.566,3.566,0,0,1,559.3,798.2Zm0-7.133a3.566,3.566,0,1,1,3.566,3.566A3.566,3.566,0,0,1,559.3,791.072Zm0-7.133a3.566,3.566,0,1,1,3.566,3.566A3.566,3.566,0,0,1,559.3,783.939Zm0-7.133a3.566,3.566,0,1,1,3.566,3.566A3.566,3.566,0,0,1,559.3,776.807Zm0-7.133a3.566,3.566,0,1,1,3.566,3.566A3.566,3.566,0,0,1,559.3,769.674Zm0-7.133a3.566,3.566,0,1,1,3.566,3.566A3.566,3.566,0,0,1,559.3,762.542Zm3.566-3.566a3.566,3.566,0,1,1,3.566-3.566A3.566,3.566,0,0,1,562.861,758.975Zm0-7.133a3.566,3.566,0,1,1,3.566-3.566A3.566,3.566,0,0,1,562.861,751.843Z" transform="translate(-545.03 -744.711)" fill="#e6427a"/>
</svg>
