<svg xmlns="http://www.w3.org/2000/svg" width="32.508" height="29.799" viewBox="0 0 32.508 29.799">
  <path id="fi-rr-envelope" d="M25.735,1H6.772A6.781,6.781,0,0,0,0,7.772V24.026A6.781,6.781,0,0,0,6.772,30.8H25.735a6.781,6.781,0,0,0,6.772-6.772V7.772A6.781,6.781,0,0,0,25.735,1ZM6.772,3.709H25.735A4.063,4.063,0,0,1,29.5,6.265L19.128,16.639a4.073,4.073,0,0,1-5.748,0L3.007,6.265A4.063,4.063,0,0,1,6.772,3.709ZM25.735,28.09H6.772a4.063,4.063,0,0,1-4.063-4.063V9.8l8.755,8.75a6.782,6.782,0,0,0,9.579,0L29.8,9.8V24.026A4.063,4.063,0,0,1,25.735,28.09Z" transform="translate(0 -1)" fill="#e6427a"/>
</svg>
