<svg xmlns="http://www.w3.org/2000/svg" width="32.836" height="39.243" viewBox="0 0 32.836 39.243">
  <g id="fi-rr-marker" transform="translate(-1.945 0.002)">
    <path id="Path_148760" data-name="Path 148760" d="M14.6,6a6.6,6.6,0,1,0,6.6,6.6A6.6,6.6,0,0,0,14.6,6Zm0,9.9a3.3,3.3,0,1,1,3.3-3.3A3.3,3.3,0,0,1,14.6,15.9Z" transform="translate(3.761 3.765)" fill="#e6427a"/>
    <path id="Path_148761" data-name="Path 148761" d="M18.363,39.241a8.6,8.6,0,0,1-7.039-3.6C5.1,27.049,1.945,20.587,1.945,16.438a16.418,16.418,0,1,1,32.836,0c0,4.15-3.156,10.611-9.379,19.206A8.6,8.6,0,0,1,18.363,39.241Zm0-35.674A12.88,12.88,0,0,0,5.506,16.441c0,3.286,3.091,9.364,8.7,17.112a5.131,5.131,0,0,0,8.311,0c5.61-7.748,8.7-13.825,8.7-17.112A12.88,12.88,0,0,0,18.363,3.567Z" fill="#e6427a"/>
  </g>
</svg>
