<svg id="instagram" xmlns="http://www.w3.org/2000/svg" width="16" height="16.003" viewBox="0 0 16 16.003">
  <path id="Path_48" data-name="Path 48" d="M16.408,4.705a5.848,5.848,0,0,0-.372-1.941A4.1,4.1,0,0,0,13.694.422,5.863,5.863,0,0,0,11.753.05C10.9.009,10.624,0,8.452,0s-2.445.009-3.3.047A5.849,5.849,0,0,0,3.212.419a3.9,3.9,0,0,0-1.419.925A3.94,3.94,0,0,0,.871,2.761,5.863,5.863,0,0,0,.5,4.7C.458,5.559.449,5.83.449,8S.458,10.448.5,11.3a5.847,5.847,0,0,0,.372,1.941,4.1,4.1,0,0,0,2.341,2.342,5.863,5.863,0,0,0,1.941.372C6,15.994,6.276,16,8.449,16s2.445-.009,3.3-.047a5.846,5.846,0,0,0,1.941-.372,4.093,4.093,0,0,0,2.342-2.342A5.867,5.867,0,0,0,16.4,11.3c.037-.853.047-1.125.047-3.3s0-2.445-.041-3.3Zm-1.441,6.534a4.386,4.386,0,0,1-.275,1.485,2.655,2.655,0,0,1-1.519,1.519,4.4,4.4,0,0,1-1.485.275c-.844.038-1.1.047-3.232.047s-2.392-.009-3.233-.047a4.384,4.384,0,0,1-1.485-.275,2.463,2.463,0,0,1-.919-.6,2.488,2.488,0,0,1-.6-.919,4.4,4.4,0,0,1-.275-1.485c-.038-.844-.047-1.1-.047-3.233s.009-2.392.047-3.232a4.384,4.384,0,0,1,.275-1.485,2.432,2.432,0,0,1,.6-.919,2.484,2.484,0,0,1,.919-.6A4.4,4.4,0,0,1,5.225,1.5c.844-.037,1.1-.047,3.232-.047s2.392.009,3.233.047a4.386,4.386,0,0,1,1.485.275,2.461,2.461,0,0,1,.919.6,2.487,2.487,0,0,1,.6.919,4.4,4.4,0,0,1,.275,1.485c.037.844.047,1.1.047,3.232s-.009,2.385-.047,3.229Zm0,0" transform="translate(-0.449 0)" fill="#fff"/>
  <path id="Path_49" data-name="Path 49" d="M129.218,124.5a4.269,4.269,0,1,0,4.269,4.269A4.27,4.27,0,0,0,129.218,124.5Zm0,7.038a2.769,2.769,0,1,1,2.769-2.769A2.769,2.769,0,0,1,129.218,131.538Zm0,0" transform="translate(-121.215 -120.766)" fill="#fff"/>
  <path id="Path_50" data-name="Path 50" d="M364.291,89.523a.921.921,0,1,1-.921-.921A.921.921,0,0,1,364.291,89.523Zm0,0" transform="translate(-351.07 -85.817)" fill="#fff"/>
</svg>
