<svg xmlns="http://www.w3.org/2000/svg" width="13.863" height="13.251" viewBox="0 0 13.863 13.251">
  <g id="linkedin" transform="translate(0 0.668)">
    <path id="Path_148755" data-name="Path 148755" d="M1.7-.668A1.569,1.569,0,0,0,0,.9,1.557,1.557,0,0,0,1.662,2.458h.02A1.568,1.568,0,1,0,1.7-.668Zm0,0" transform="translate(0)" fill="#fff"/>
    <path id="Path_148756" data-name="Path 148756" d="M8.109,198.313h3.007v9.048H8.109Zm0,0" transform="translate(-7.932 -194.777)" fill="#fff"/>
    <path id="Path_148757" data-name="Path 148757" d="M226.933,188.625a3.768,3.768,0,0,0-2.71,1.524v-1.312h-3.007v9.048h3.007v-5.053a2.061,2.061,0,0,1,.1-.734,1.646,1.646,0,0,1,1.543-1.1c1.088,0,1.523.83,1.523,2.046v4.84h3.007V192.7c0-2.779-1.484-4.072-3.462-4.072Zm0,0" transform="translate(-216.531 -185.302)" fill="#fff"/>
  </g>
</svg>
