<svg xmlns="http://www.w3.org/2000/svg" width="24" height="23.996" viewBox="0 0 24 23.996">
  <g id="play-button" transform="translate(0 -0.002)">
    <path id="Path_148421" data-name="Path 148421" d="M19.982,14.438,13.742,9.9a.752.752,0,0,0-1.2.607v9.069a.75.75,0,0,0,.411.671.758.758,0,0,0,.342.081.748.748,0,0,0,.442-.146l6.24-4.532a.746.746,0,0,0,0-1.214Z" transform="translate(-3.404 -3.031)" fill="#e6427a"/>
    <path id="Path_148422" data-name="Path 148422" d="M12,0A12,12,0,1,0,24,12,12,12,0,0,0,12,0ZM12,22A10,10,0,1,1,21.995,12,9.994,9.994,0,0,1,12,22Z" fill="#e6427a"/>
  </g>
</svg>
