<svg id="right-quote-sign" xmlns="http://www.w3.org/2000/svg" width="59.107" height="52.173" viewBox="0 0 59.107 52.173">
  <path id="Path_148173" data-name="Path 148173" d="M578.559,57.2H560.13a3.032,3.032,0,0,0-3.031,3.031V78.657a3.032,3.032,0,0,0,3.031,3.031h8.82q-.173,7.238-3.358,11.591a18.262,18.262,0,0,1-7.6,5.686,3.027,3.027,0,0,0-1.5,4.068l2.182,4.607a3.031,3.031,0,0,0,3.947,1.479,33.7,33.7,0,0,0,10.166-6.6A25.592,25.592,0,0,0,579.717,91.5q1.873-6.147,1.873-16.78V60.228A3.032,3.032,0,0,0,578.559,57.2Z" transform="translate(-522.482 -57.197)" fill="#e6427a"/>
  <path id="Path_148174" data-name="Path 148174" d="M6.427,109.107a34.267,34.267,0,0,0,10.118-6.583,25.455,25.455,0,0,0,6.971-10.985q1.873-6.1,1.873-16.822V60.228A3.032,3.032,0,0,0,22.358,57.2H3.929A3.032,3.032,0,0,0,.9,60.228V78.657a3.032,3.032,0,0,0,3.031,3.031h8.82q-.173,7.238-3.358,11.591a18.261,18.261,0,0,1-7.6,5.686,3.027,3.027,0,0,0-1.5,4.068l2.176,4.6A3.039,3.039,0,0,0,6.427,109.107Z" transform="translate(0.001 -57.197)" fill="#e6427a"/>
</svg>
