<svg xmlns="http://www.w3.org/2000/svg" width="35.167" height="35.167" viewBox="0 0 35.167 35.167">
  <g id="telephone_1_" data-name="telephone (1)" transform="translate(0 -0.542)">
    <path id="Path_148762" data-name="Path 148762" d="M34.154,26.944l-5.083-5.108A3.613,3.613,0,0,0,26.5,20.778a3.79,3.79,0,0,0-2.7,1.131L21.817,23.9a24.1,24.1,0,0,1-5.7-4.17A24.213,24.213,0,0,1,11.962,14l1.98-1.988a3.767,3.767,0,0,0,.067-5.3l-5.082-5.1A3.6,3.6,0,0,0,6.354.542,3.794,3.794,0,0,0,3.7,1.626a10.941,10.941,0,0,0-3.443,6.3c-1.143,5.606,1.483,11,9.064,18.618,8.468,8.5,15.7,9.165,17.711,9.165a6.664,6.664,0,0,0,.74-.034,8.381,8.381,0,0,0,6.4-3.513A3.879,3.879,0,0,0,34.154,26.944Zm-1.687,3.842A6.2,6.2,0,0,1,27.517,33.5a4.839,4.839,0,0,1-.486.019c-1.8,0-8.293-.615-16.168-8.522C3.872,17.969,1.418,13.151,2.393,8.366A8.629,8.629,0,0,1,5.069,3.331l.065-.048.057-.058a1.634,1.634,0,0,1,1.162-.491,1.436,1.436,0,0,1,1.03.42L12.467,8.26a1.566,1.566,0,0,1-.069,2.2l-2.24,2.248-.037.039a1.8,1.8,0,0,0-.193,2.087,26.628,26.628,0,0,0,4.644,6.442,26.479,26.479,0,0,0,6.4,4.654,1.966,1.966,0,0,0,.944.252,1.742,1.742,0,0,0,1.325-.612l2.1-2.111A1.627,1.627,0,0,1,26.5,22.97a1.449,1.449,0,0,1,1.032.418l5.079,5.1A1.73,1.73,0,0,1,32.467,30.786Z" transform="translate(0 0)" fill="#e6427a"/>
    <path id="Path_148763" data-name="Path 148763" d="M140.821,24.631a10.893,10.893,0,0,1,8.971,9.024,1.148,1.148,0,0,0,1.14,1.024,1.191,1.191,0,0,0,.125-.007,1.148,1.148,0,0,0,1.018-1.265,13.177,13.177,0,0,0-10.992-11.058,1.148,1.148,0,1,0-.263,2.282Z" transform="translate(-120.244 -18.462)" fill="#e6427a"/>
    <path id="Path_148764" data-name="Path 148764" d="M133.813,56.048a6.879,6.879,0,0,1,5.4,5.428,1.148,1.148,0,0,0,1.14,1.025,1.192,1.192,0,0,0,.125-.007,1.148,1.148,0,0,0,1.018-1.265,9.143,9.143,0,0,0-7.418-7.462,1.148,1.148,0,1,0-.263,2.282Z" transform="translate(-113.789 -45.555)" fill="#e6427a"/>
  </g>
</svg>
