<svg xmlns="http://www.w3.org/2000/svg" xmlns:xlink="http://www.w3.org/1999/xlink" width="60.968" height="60.968" viewBox="0 0 60.968 60.968">
  <defs>
    <clipPath id="clip-path">
      <path id="SVGID" d="M352.564,233.649a.773.773,0,1,0,.772-.773.682.682,0,0,0-.772.773m1.546,0a.772.772,0,1,0,.773-.773.683.683,0,0,0-.773.773m1.545,0a.773.773,0,1,0,.773-.773.683.683,0,0,0-.773.773m1.546,0a.772.772,0,1,0,.772-.773.683.683,0,0,0-.772.773m1.545,0a.773.773,0,1,0,.773-.773.683.683,0,0,0-.773.773m-7.727-1.546a.773.773,0,1,0,.773-.772.683.683,0,0,0-.773.772m1.546,0a.773.773,0,1,0,.772-.772.682.682,0,0,0-.772.772m1.546,0a.772.772,0,1,0,.773-.772.683.683,0,0,0-.773.772m1.545,0a.773.773,0,1,0,.773-.772.683.683,0,0,0-.773.772m1.546,0a.772.772,0,1,0,.772-.772.683.683,0,0,0-.772.772m1.545,0a.773.773,0,1,0,.773-.772.683.683,0,0,0-.773.772m1.546,0a.773.773,0,1,0,.772-.772.682.682,0,0,0-.772.772m-9.273-1.546a.773.773,0,1,0,.773-.773.683.683,0,0,0-.773.773m1.546,0a.773.773,0,1,0,.772-.773.683.683,0,0,0-.772.773m1.546,0a.772.772,0,1,0,.773-.773.683.683,0,0,0-.773.773m1.545,0a.773.773,0,1,0,.773-.773.684.684,0,0,0-.773.773m1.546,0a.772.772,0,1,0,.772-.773.683.683,0,0,0-.772.773m1.545,0a.773.773,0,1,0,.773-.773.684.684,0,0,0-.773.773m1.546,0a.773.773,0,1,0,.772-.773.683.683,0,0,0-.772.773m-9.273-1.546a.773.773,0,1,0,.773-.772.683.683,0,0,0-.773.772m1.546,0a.773.773,0,1,0,.772-.772.683.683,0,0,0-.772.772m1.546,0a.772.772,0,1,0,.773-.772.683.683,0,0,0-.773.772m3.091,0a.772.772,0,1,0,.772-.772.683.683,0,0,0-.772.772m1.545,0a.773.773,0,1,0,.773-.772.683.683,0,0,0-.773.772m1.546,0a.773.773,0,1,0,.772-.772.683.683,0,0,0-.772.772m-9.273-1.545a.773.773,0,1,0,.773-.772.683.683,0,0,0-.773.772m1.546,0a.773.773,0,1,0,.772-.772.683.683,0,0,0-.772.772m1.546,0a.772.772,0,1,0,.773-.772.683.683,0,0,0-.773.772m3.091,0a.772.772,0,1,0,.772-.772.683.683,0,0,0-.772.772m1.545,0a.773.773,0,1,0,.773-.772.683.683,0,0,0-.773.772m1.546,0a.773.773,0,1,0,.772-.772.683.683,0,0,0-.772.772m-9.273-1.547a.773.773,0,1,0,.773-.773.682.682,0,0,0-.773.773m1.546,0a.773.773,0,1,0,.772-.773.682.682,0,0,0-.772.773m1.546,0a.772.772,0,1,0,.773-.773.682.682,0,0,0-.773.773m3.091,0a.772.772,0,1,0,.772-.773.682.682,0,0,0-.772.773m1.545,0a.773.773,0,1,0,.773-.773.683.683,0,0,0-.773.773m1.546,0a.773.773,0,1,0,.772-.773.682.682,0,0,0-.772.773m-9.273-1.546a.773.773,0,1,0,.773-.772.683.683,0,0,0-.773.772m1.546,0a.773.773,0,1,0,.772-.772.683.683,0,0,0-.772.772m1.546,0a.772.772,0,1,0,.773-.772.683.683,0,0,0-.773.772m3.091,0a.772.772,0,1,0,.772-.772.683.683,0,0,0-.772.772m1.545,0a.773.773,0,1,0,.773-.772.683.683,0,0,0-.773.772m1.546,0a.773.773,0,1,0,.772-.772.683.683,0,0,0-.772.772m-9.273-1.545a.773.773,0,1,0,.773-.773.683.683,0,0,0-.773.773m1.546,0a.773.773,0,1,0,.772-.773.683.683,0,0,0-.772.773m1.546,0a.772.772,0,1,0,.773-.773.683.683,0,0,0-.773.773m1.545,0a.773.773,0,1,0,.773-.773.684.684,0,0,0-.773.773m1.546,0a.772.772,0,1,0,.772-.773.683.683,0,0,0-.772.773m1.545,0a.773.773,0,1,0,.773-.773.683.683,0,0,0-.773.773m1.546,0a.773.773,0,1,0,.772-.773.683.683,0,0,0-.772.773m-9.273-1.546a.773.773,0,1,0,.773-.772.683.683,0,0,0-.773.772m1.546,0a.773.773,0,1,0,.772-.772.683.683,0,0,0-.772.772m1.546,0a.772.772,0,1,0,.773-.772.683.683,0,0,0-.773.772m1.545,0a.773.773,0,1,0,.773-.772.683.683,0,0,0-.773.772m1.546,0a.772.772,0,1,0,.772-.772.683.683,0,0,0-.772.772m1.545,0a.773.773,0,1,0,.773-.772.683.683,0,0,0-.773.772m1.546,0a.773.773,0,1,0,.772-.772.683.683,0,0,0-.772.772m-7.728-1.546a.773.773,0,1,0,.772-.773.683.683,0,0,0-.772.773m1.546,0a.772.772,0,1,0,.773-.773.683.683,0,0,0-.773.773m1.545,0a.773.773,0,1,0,.773-.773.684.684,0,0,0-.773.773m1.546,0a.772.772,0,1,0,.772-.773.683.683,0,0,0-.772.773m1.545,0a.773.773,0,1,0,.773-.773.683.683,0,0,0-.773.773" transform="translate(-351.018 -218.964)" fill="none"/>
    </clipPath>
    <linearGradient id="linear-gradient" x1="-11.967" y1="8.861" x2="-11.933" y2="8.861" gradientUnits="objectBoundingBox">
      <stop offset="0" stop-color="#fab428"/>
      <stop offset="0.114" stop-color="#fab428"/>
      <stop offset="0.25" stop-color="#f7a631"/>
      <stop offset="0.508" stop-color="#f1814c"/>
      <stop offset="0.858" stop-color="#e64676"/>
      <stop offset="0.887" stop-color="#e6417a"/>
      <stop offset="1" stop-color="#e6417a"/>
    </linearGradient>
    <clipPath id="clip-path-2">
      <path id="SVGID-2" data-name="SVGID" d="M313.21,212.361a.773.773,0,1,0,.773-.772.683.683,0,0,0-.773.772m1.546,0a.773.773,0,1,0,.772-.772.683.683,0,0,0-.772.772m1.546,0a.773.773,0,1,0,.772-.772.683.683,0,0,0-.772.772m3.092,0a.772.772,0,1,0,.772-.772.683.683,0,0,0-.772.772m1.545,0a.773.773,0,1,0,.773-.772.683.683,0,0,0-.773.772m1.546,0a.773.773,0,1,0,.772-.772.683.683,0,0,0-.772.772m-9.273-1.545a.773.773,0,1,0,.773-.772.683.683,0,0,0-.773.772m1.546,0a.773.773,0,1,0,.772-.772.683.683,0,0,0-.772.772m1.546,0a.773.773,0,1,0,.772-.772.683.683,0,0,0-.772.772m1.546,0a.773.773,0,1,0,.773-.772.683.683,0,0,0-.773.772m1.546,0a.772.772,0,1,0,.772-.772.682.682,0,0,0-.772.772m1.545,0a.773.773,0,1,0,.773-.772.683.683,0,0,0-.773.772m1.546,0a.773.773,0,1,0,.772-.772.683.683,0,0,0-.772.772m-9.273-1.546a.773.773,0,1,0,.773-.772.683.683,0,0,0-.773.772m1.546,0a.773.773,0,1,0,.772-.772.683.683,0,0,0-.772.772m1.546,0a.773.773,0,1,0,.772-.772.683.683,0,0,0-.772.772m1.546,0a.773.773,0,1,0,.773-.772.683.683,0,0,0-.773.772m1.546,0a.772.772,0,1,0,.772-.772.683.683,0,0,0-.772.772m1.545,0a.773.773,0,1,0,.773-.772.683.683,0,0,0-.773.772m1.546,0a.773.773,0,1,0,.772-.772.683.683,0,0,0-.772.772m-7.728-1.545a.773.773,0,1,0,.772-.773.683.683,0,0,0-.772.773m1.546,0a.773.773,0,1,0,.772-.773.683.683,0,0,0-.772.773m1.546,0a.773.773,0,1,0,.773-.773.683.683,0,0,0-.773.773m1.546,0a.772.772,0,1,0,.772-.773.683.683,0,0,0-.772.773m1.545,0a.773.773,0,1,0,.773-.773.683.683,0,0,0-.773.773" transform="translate(-313.21 -206.953)" fill="none"/>
    </clipPath>
    <linearGradient id="linear-gradient-2" x1="-18.575" y1="13.21" x2="-18.515" y2="13.21" gradientUnits="objectBoundingBox">
      <stop offset="0" stop-color="#fab428"/>
      <stop offset="0.147" stop-color="#f7a631"/>
      <stop offset="0.423" stop-color="#f1814c"/>
      <stop offset="0.799" stop-color="#e64676"/>
      <stop offset="0.83" stop-color="#e6417a"/>
      <stop offset="1" stop-color="#e6417a"/>
    </linearGradient>
    <clipPath id="clip-path-3">
      <path id="SVGID-3" data-name="SVGID" d="M333.66,233.651a.773.773,0,1,0,.773-.773.683.683,0,0,0-.773.773m1.546,0a.773.773,0,1,0,.773-.773.683.683,0,0,0-.773.773m1.546,0a.772.772,0,1,0,.772-.773.682.682,0,0,0-.772.773m1.545,0a.773.773,0,1,0,.772-.773.683.683,0,0,0-.772.773m1.546,0a.773.773,0,1,0,.772-.773.683.683,0,0,0-.772.773m3.091-.029a.773.773,0,1,0,.772-.744.678.678,0,0,0-.772.744m-10.819-1.517a.773.773,0,1,0,.772-.772.683.683,0,0,0-.772.772m1.545,0a.773.773,0,1,0,.773-.772.683.683,0,0,0-.773.772m1.546,0a.773.773,0,1,0,.773-.772.683.683,0,0,0-.773.772m1.546,0a.772.772,0,1,0,.772-.772.682.682,0,0,0-.772.772m1.545,0a.773.773,0,1,0,.772-.772.683.683,0,0,0-.772.772m1.546,0a.773.773,0,1,0,.772-.772.683.683,0,0,0-.772.772m3.091-.028a.773.773,0,1,0,.772-.744.678.678,0,0,0-.772.744m-10.819-1.517a.773.773,0,1,0,.772-.773.684.684,0,0,0-.772.773m1.545,0a.773.773,0,1,0,.773-.773.683.683,0,0,0-.773.773m1.546,0a.773.773,0,1,0,.773-.773.684.684,0,0,0-.773.773m1.546,0a.772.772,0,1,0,.772-.773.683.683,0,0,0-.772.773m1.545,0a.773.773,0,1,0,.772-.773.683.683,0,0,0-.772.773m1.546,0a.773.773,0,1,0,.772-.773.683.683,0,0,0-.772.773m3.091-.029a.773.773,0,1,0,.772-.744.679.679,0,0,0-.772.744m-10.819-1.517a.773.773,0,1,0,.772-.772.683.683,0,0,0-.772.772m1.545,0a.773.773,0,1,0,.773-.772.683.683,0,0,0-.773.772m1.546,0a.773.773,0,1,0,.773-.772.683.683,0,0,0-.773.772m3.091,0a.773.773,0,1,0,.772-.772.683.683,0,0,0-.772.772m1.546,0a.773.773,0,1,0,.772-.772.683.683,0,0,0-.772.772m1.546,0a.773.773,0,1,0,.773-.772.683.683,0,0,0-.773.772m-9.273-3.089a.773.773,0,0,1,0,1.544.773.773,0,0,0,1.545,0,.773.773,0,0,1,0-1.544.773.773,0,0,0-1.545,0m1.545,0a.773.773,0,0,1,0,1.544.773.773,0,0,0,1.546,0,.773.773,0,0,1,0-1.544.773.773,0,0,0-1.546,0m1.546,0a.773.773,0,0,1,0,1.544,1.726,1.726,0,1,0,0-1.544m3.091,0a.773.773,0,0,1,0,1.544,1.727,1.727,0,1,0,0-1.544m1.546,0a.773.773,0,0,1,0,1.544.773.773,0,0,0,1.546,0,.773.773,0,0,1,0-1.544.773.773,0,0,0-1.546,0m1.546,0a.773.773,0,0,1,0,1.544.773.773,0,0,0,1.546,0,.773.773,0,0,1,0-1.544.773.773,0,0,0-1.546,0m-9.273-1.545a.773.773,0,1,0,.772-.773.683.683,0,0,0-.772.773m1.545,0a.773.773,0,1,0,.773-.773.683.683,0,0,0-.773.773m1.546,0a.773.773,0,1,0,.773-.773.683.683,0,0,0-.773.773m3.091,0a.773.773,0,1,0,.772-.773.683.683,0,0,0-.772.773m1.546,0a.773.773,0,1,0,.772-.773.683.683,0,0,0-.772.773m1.546,0a.773.773,0,1,0,.773-.773.683.683,0,0,0-.773.773m-9.273-1.546a.773.773,0,1,0,.772-.772.683.683,0,0,0-.772.772m1.545,0a.773.773,0,1,0,.773-.772.683.683,0,0,0-.773.772m1.546,0a.773.773,0,1,0,.773-.772.683.683,0,0,0-.773.772m1.546,0a.772.772,0,1,0,.772-.772.683.683,0,0,0-.772.772m1.545,0a.773.773,0,1,0,.772-.772.683.683,0,0,0-.772.772m1.546,0a.773.773,0,1,0,.772-.772.683.683,0,0,0-.772.772m1.546,0a.773.773,0,1,0,.773-.772.683.683,0,0,0-.773.772m-9.273-1.546a.773.773,0,1,0,.772-.772.683.683,0,0,0-.772.772m1.545,0a.773.773,0,1,0,.773-.772.683.683,0,0,0-.773.772m1.546,0a.773.773,0,1,0,.773-.772.683.683,0,0,0-.773.772m1.546,0a.772.772,0,1,0,.772-.772.683.683,0,0,0-.772.772m1.545,0a.773.773,0,1,0,.772-.772.683.683,0,0,0-.772.772m1.546,0a.773.773,0,1,0,.772-.772.683.683,0,0,0-.772.772m1.546,0a.773.773,0,1,0,.773-.772.683.683,0,0,0-.773.772m-7.728-1.545a.773.773,0,1,0,.773-.772.683.683,0,0,0-.773.772m1.546,0a.773.773,0,1,0,.773-.772.683.683,0,0,0-.773.772m1.546,0a.772.772,0,1,0,.772-.772.683.683,0,0,0-.772.772m1.545,0a.773.773,0,1,0,.772-.772.683.683,0,0,0-.772.772m1.546,0a.773.773,0,1,0,.772-.772.683.683,0,0,0-.772.772" transform="translate(-332.114 -218.971)" fill="none"/>
    </clipPath>
    <linearGradient id="linear-gradient-3" x1="-10.855" y1="8.28" x2="-10.821" y2="8.28" gradientUnits="objectBoundingBox">
      <stop offset="0" stop-color="#fab428"/>
      <stop offset="0.162" stop-color="#fab428"/>
      <stop offset="0.28" stop-color="#f7a631"/>
      <stop offset="0.503" stop-color="#f1814c"/>
      <stop offset="0.805" stop-color="#e64676"/>
      <stop offset="0.83" stop-color="#e6417a"/>
      <stop offset="1" stop-color="#e6417a"/>
    </linearGradient>
    <clipPath id="clip-path-4">
      <path id="SVGID-4" data-name="SVGID" d="M336.88,212.362a.773.773,0,1,0,.773-.773.683.683,0,0,0-.773.773m1.546,0a.773.773,0,1,0,.773-.773.683.683,0,0,0-.773.773m1.546,0a.773.773,0,1,0,.772-.773.683.683,0,0,0-.772.773m-3.092-1.546a.773.773,0,1,0,.773-.772.683.683,0,0,0-.773.772m1.546,0a.773.773,0,1,0,.773-.772.683.683,0,0,0-.773.772m1.546,0a.773.773,0,1,0,.772-.772.682.682,0,0,0-.772.772m1.546,0a.773.773,0,1,0,.772-.772.682.682,0,0,0-.772.772m-4.637-1.546a.773.773,0,1,0,.773-.772.683.683,0,0,0-.773.772m1.546,0a.773.773,0,1,0,.773-.772.683.683,0,0,0-.773.772m1.546,0a.773.773,0,1,0,.772-.772.683.683,0,0,0-.772.772m1.546,0a.773.773,0,1,0,.772-.772.683.683,0,0,0-.772.772m-3.092-1.545a.773.773,0,1,0,.773-.773.683.683,0,0,0-.773.773m1.546,0a.773.773,0,1,0,.772-.773.683.683,0,0,0-.772.773m1.546,0a.773.773,0,1,0,.772-.773.683.683,0,0,0-.772.773" transform="translate(-336.88 -206.953)" fill="none"/>
    </clipPath>
    <linearGradient id="linear-gradient-4" x1="-25.68" y1="19.035" x2="-25.603" y2="19.035" xlink:href="#linear-gradient-3"/>
    <clipPath id="clip-path-5">
      <path id="SVGID-5" data-name="SVGID" d="M313.21,233.653a.773.773,0,1,0,.773-.773.683.683,0,0,0-.773.773m1.546,0a.773.773,0,1,0,.772-.773.683.683,0,0,0-.772.773m1.546,0a.773.773,0,1,0,.772-.773.683.683,0,0,0-.772.773m1.546,0a.773.773,0,1,0,.773-.773.683.683,0,0,0-.773.773m1.546,0a.772.772,0,1,0,.772-.773.682.682,0,0,0-.772.773m1.545,0a.773.773,0,1,0,.773-.773.683.683,0,0,0-.773.773m-7.728-1.545a.773.773,0,1,0,.773-.773.683.683,0,0,0-.773.773m1.546,0a.773.773,0,1,0,.772-.773.682.682,0,0,0-.772.773m1.546,0a.773.773,0,1,0,.772-.773.682.682,0,0,0-.772.773m1.546,0a.773.773,0,1,0,.773-.773.683.683,0,0,0-.773.773m1.546,0a.772.772,0,1,0,.772-.773.682.682,0,0,0-.772.773m1.545,0a.773.773,0,1,0,.773-.773.682.682,0,0,0-.773.773m1.546,0a.773.773,0,1,0,.772-.773.682.682,0,0,0-.772.773m-9.273-1.546a.773.773,0,1,0,.773-.772.683.683,0,0,0-.773.772m1.546,0a.773.773,0,1,0,.772-.772.683.683,0,0,0-.772.772m1.546,0a.773.773,0,1,0,.772-.772.683.683,0,0,0-.772.772m1.546,0a.773.773,0,1,0,.773-.772.683.683,0,0,0-.773.772m1.546,0a.772.772,0,1,0,.772-.772.683.683,0,0,0-.772.772m1.545,0a.773.773,0,1,0,.773-.772.683.683,0,0,0-.773.772m1.546,0a.773.773,0,1,0,.772-.772.683.683,0,0,0-.772.772m-9.273-1.545a.773.773,0,1,0,.773-.773.683.683,0,0,0-.773.773m1.546,0a.773.773,0,1,0,.772-.773.683.683,0,0,0-.772.773m1.546,0a.773.773,0,1,0,.772-.773.683.683,0,0,0-.772.773m3.092,0a.772.772,0,1,0,.772-.773.683.683,0,0,0-.772.773m1.545,0a.773.773,0,1,0,.773-.773.683.683,0,0,0-.773.773m1.546,0a.773.773,0,1,0,.772-.773.683.683,0,0,0-.772.773m-9.273-1.546a.773.773,0,1,0,.773-.772.683.683,0,0,0-.773.772m1.546,0a.773.773,0,1,0,.772-.772.683.683,0,0,0-.772.772m1.546,0a.773.773,0,1,0,.772-.772.683.683,0,0,0-.772.772m3.092,0a.772.772,0,1,0,.772-.772.683.683,0,0,0-.772.772m1.545,0a.773.773,0,1,0,.773-.772.683.683,0,0,0-.773.772m1.546,0a.773.773,0,1,0,.772-.772.683.683,0,0,0-.772.772m-9.273-1.547a.773.773,0,1,0,.773-.772.683.683,0,0,0-.773.772m1.546,0a.773.773,0,1,0,.772-.772.683.683,0,0,0-.772.772m1.546,0a.773.773,0,1,0,.772-.772.683.683,0,0,0-.772.772m3.092,0a.772.772,0,1,0,.772-.772.683.683,0,0,0-.772.772m1.545,0a.773.773,0,1,0,.773-.772.683.683,0,0,0-.773.772m1.546,0a.773.773,0,1,0,.772-.772.683.683,0,0,0-.772.772m-9.273-1.546a.773.773,0,1,0,.773-.772.683.683,0,0,0-.773.772m1.546,0a.773.773,0,1,0,.772-.772.683.683,0,0,0-.772.772m1.546,0a.773.773,0,1,0,.772-.772.683.683,0,0,0-.772.772m3.092,0a.772.772,0,1,0,.772-.772.683.683,0,0,0-.772.772m1.545,0a.773.773,0,1,0,.773-.772.683.683,0,0,0-.773.772m1.546,0a.773.773,0,1,0,.772-.772.683.683,0,0,0-.772.772m-9.273-1.546a.773.773,0,1,0,.773-.772.683.683,0,0,0-.773.772m1.546,0a.773.773,0,1,0,.772-.772.683.683,0,0,0-.772.772m1.546,0a.773.773,0,1,0,.772-.772.683.683,0,0,0-.772.772m3.092,0a.772.772,0,1,0,.772-.772.683.683,0,0,0-.772.772m1.545,0a.773.773,0,1,0,.773-.772.683.683,0,0,0-.773.772m1.546,0a.773.773,0,1,0,.772-.772.683.683,0,0,0-.772.772m-9.273-1.546a.773.773,0,1,0,.773-.773.683.683,0,0,0-.773.773m1.546,0a.773.773,0,1,0,.772-.773.683.683,0,0,0-.772.773m1.546,0a.773.773,0,1,0,.772-.773.683.683,0,0,0-.772.773m3.092,0a.772.772,0,1,0,.772-.773.683.683,0,0,0-.772.773m1.545,0a.773.773,0,1,0,.773-.773.683.683,0,0,0-.773.773m1.546,0a.773.773,0,1,0,.772-.773.683.683,0,0,0-.772.773m-9.273-1.545a.773.773,0,1,0,.773-.773.683.683,0,0,0-.773.773m1.546,0a.773.773,0,1,0,.772-.773.682.682,0,0,0-.772.773m1.546,0a.773.773,0,1,0,.772-.773.682.682,0,0,0-.772.773m3.092,0a.772.772,0,1,0,.772-.773.682.682,0,0,0-.772.773m1.545,0a.773.773,0,1,0,.773-.773.682.682,0,0,0-.773.773m1.546,0a.773.773,0,1,0,.772-.773.682.682,0,0,0-.772.773" transform="translate(-313.21 -218.969)" fill="none"/>
    </clipPath>
    <linearGradient id="linear-gradient-5" x1="-10.656" y1="8.861" x2="-10.621" y2="8.861" gradientUnits="objectBoundingBox">
      <stop offset="0" stop-color="#fab428"/>
      <stop offset="0.13" stop-color="#f7a631"/>
      <stop offset="0.375" stop-color="#f1814c"/>
      <stop offset="0.708" stop-color="#e64676"/>
      <stop offset="0.736" stop-color="#e6417a"/>
      <stop offset="1" stop-color="#e6417a"/>
    </linearGradient>
    <clipPath id="clip-path-6">
      <path id="SVGID-6" data-name="SVGID" d="M313.21,248.011a.772.772,0,1,0,.773-.772.683.683,0,0,0-.773.772m1.545,0a.773.773,0,1,0,.773-.772.684.684,0,0,0-.773.772m-1.545-1.545a.772.772,0,1,0,.773-.773.683.683,0,0,0-.773.773m1.545,0a.773.773,0,1,0,.773-.773.683.683,0,0,0-.773.773m1.546,0a.773.773,0,1,0,.772-.773.682.682,0,0,0-.772.773m-3.091-1.546a.772.772,0,1,0,.773-.773.683.683,0,0,0-.773.773m1.545,0a.773.773,0,1,0,.773-.773.683.683,0,0,0-.773.773m1.546,0a.773.773,0,1,0,.772-.773.683.683,0,0,0-.772.773m-3.091-1.546a.772.772,0,1,0,.773-.773.683.683,0,0,0-.773.773m1.545,0a.773.773,0,1,0,.773-.773.683.683,0,0,0-.773.773m1.546,0a.773.773,0,1,0,.772-.773.682.682,0,0,0-.772.773" transform="translate(-313.21 -242.601)" fill="none"/>
    </clipPath>
    <linearGradient id="linear-gradient-6" x1="-26.387" y1="19.155" x2="-26.302" y2="19.155" xlink:href="#linear-gradient-2"/>
    <clipPath id="clip-path-7">
      <path id="SVGID-7" data-name="SVGID" d="M341.631,248.007a.773.773,0,1,0,.773-.772.683.683,0,0,0-.773.772m1.546,0a.773.773,0,1,0,.772-.772.683.683,0,0,0-.772.772m-1.546-1.545a.773.773,0,1,0,.773-.773.683.683,0,0,0-.773.773m1.546,0a.773.773,0,1,0,.772-.773.683.683,0,0,0-.772.773m1.546,0a.773.773,0,1,0,.773-.773.683.683,0,0,0-.773.773m-3.091-1.546a.773.773,0,1,0,.773-.773.683.683,0,0,0-.773.773m1.546,0a.773.773,0,1,0,.772-.773.683.683,0,0,0-.772.773m1.546,0a.773.773,0,1,0,.773-.773.683.683,0,0,0-.773.773m-3.091-1.546a.773.773,0,1,0,.773-.773.683.683,0,0,0-.773.773m1.546,0a.773.773,0,1,0,.772-.773.683.683,0,0,0-.772.773m1.546,0a.773.773,0,1,0,.773-.773.683.683,0,0,0-.773.773" transform="translate(-341.631 -242.597)" fill="none"/>
    </clipPath>
    <linearGradient id="linear-gradient-7" x1="-28.801" y1="19.156" x2="-28.716" y2="19.156" xlink:href="#linear-gradient-2"/>
  </defs>
  <g id="logo" transform="translate(-1239.032 -34.999)">
    <g id="Group_129063" data-name="Group 129063" transform="translate(1277.547 58.793)">
      <g id="Group_129062" data-name="Group 129062" transform="translate(0 0)" clip-path="url(#clip-path)">
        <rect id="Rectangle_110033" data-name="Rectangle 110033" width="18.849" height="17.426" transform="translate(-7.001 11.002) rotate(-57.529)" fill="url(#linear-gradient)"/>
      </g>
    </g>
    <g id="Group_129065" data-name="Group 129065" transform="translate(1250.986 50.081)">
      <g id="Group_129064" data-name="Group 129064" transform="translate(0 0)" clip-path="url(#clip-path-2)">
        <rect id="Rectangle_110034" data-name="Rectangle 110034" width="11.023" height="12.446" transform="translate(-2.8 4.4) rotate(-57.529)" fill="url(#linear-gradient-2)"/>
      </g>
    </g>
    <g id="Group_129067" data-name="Group 129067" transform="translate(1264.326 58.798)">
      <g id="Group_129066" data-name="Group 129066" transform="translate(0 0)" clip-path="url(#clip-path-3)">
        <rect id="Rectangle_110035" data-name="Rectangle 110035" width="19.675" height="18.728" transform="matrix(0.537, -0.844, 0.844, 0.537, -6.999, 10.999)" fill="url(#linear-gradient-3)"/>
      </g>
    </g>
    <g id="Group_129069" data-name="Group 129069" transform="translate(1267.437 50.081)">
      <g id="Group_129068" data-name="Group 129068" transform="translate(0 0)" clip-path="url(#clip-path-4)">
        <rect id="Rectangle_110036" data-name="Rectangle 110036" width="8.534" height="8.535" transform="translate(-2.8 4.4) rotate(-57.529)" fill="url(#linear-gradient-4)"/>
      </g>
    </g>
    <g id="Group_129071" data-name="Group 129071" transform="translate(1250.986 58.796)">
      <g id="Group_129070" data-name="Group 129070" transform="translate(0 0)" clip-path="url(#clip-path-5)">
        <rect id="Rectangle_110037" data-name="Rectangle 110037" width="18.849" height="17.426" transform="translate(-7.001 11.002) rotate(-57.529)" fill="url(#linear-gradient-5)"/>
      </g>
    </g>
    <g id="Group_129073" data-name="Group 129073" transform="translate(1250.89 73.969)">
      <g id="Group_129072" data-name="Group 129072" transform="translate(0)" clip-path="url(#clip-path-6)">
        <rect id="Rectangle_110038" data-name="Rectangle 110038" width="7.706" height="7.231" transform="translate(-2.8 4.401) rotate(-57.529)" fill="url(#linear-gradient-6)"/>
      </g>
    </g>
    <g id="Group_129075" data-name="Group 129075" transform="translate(1270.695 73.965)">
      <g id="Group_129074" data-name="Group 129074" transform="translate(0 0)" clip-path="url(#clip-path-7)">
        <rect id="Rectangle_110039" data-name="Rectangle 110039" width="7.705" height="7.231" transform="matrix(0.537, -0.844, 0.844, 0.537, -2.8, 4.4)" fill="url(#linear-gradient-7)"/>
      </g>
    </g>
    <path id="Path_148408" data-name="Path 148408" d="M357.162,246.319H296.194V185.351h60.968Zm-57.63-3.337h54.292V188.689H299.532Z" transform="translate(942.838 -150.352)" fill="#7c5a7e"/>
    <g id="Group_129079" data-name="Group 129079" transform="translate(1258.848 86.09)">
      <path id="Path_148409" data-name="Path 148409" d="M325.662,259.39c-.015-.289-.035-.638-.031-.9h-.01c-.071.243-.157.5-.262.788l-.366,1.006h-.2l-.336-.988c-.1-.292-.181-.56-.24-.806h-.006c-.006.258-.022.606-.04.916l-.056.89h-.255l.145-2.075h.341l.354,1c.087.256.158.483.21.7h.009c.052-.209.126-.437.218-.7l.37-1h.341l.129,2.075h-.261Z" transform="translate(-323.859 -258.192)" fill="#7c5a7e"/>
      <path id="Path_148410" data-name="Path 148410" d="M331.6,259.223a.972.972,0,0,1-.963,1.093.95.95,0,0,1-.932-1.052.985.985,0,0,1,.963-1.09.945.945,0,0,1,.933,1.049m-1.61.034c0,.443.24.84.662.84s.665-.391.665-.861c0-.413-.216-.843-.661-.843s-.665.409-.665.864" transform="translate(-325.88 -258.174)" fill="#7c5a7e"/>
      <path id="Path_148411" data-name="Path 148411" d="M335.479,259.647l-.215.653h-.277l.705-2.074h.323l.708,2.074h-.286l-.222-.653Zm.68-.209-.2-.6c-.046-.135-.077-.259-.107-.379h-.006c-.031.123-.065.25-.105.375l-.2.6Z" transform="translate(-327.708 -258.192)" fill="#7c5a7e"/>
      <path id="Path_148412" data-name="Path 148412" d="M340.175,258.453h-.631v-.228h1.536v.228h-.634V260.3h-.271Z" transform="translate(-329.285 -258.192)" fill="#7c5a7e"/>
      <path id="Path_148413" data-name="Path 148413" d="M344.675,258.225v.868h1v-.868h.271V260.3h-.271v-.973h-1v.973h-.268v-2.075Z" transform="translate(-330.968 -258.192)" fill="#7c5a7e"/>
      <path id="Path_148414" data-name="Path 148414" d="M350.712,259.327h-.806v.748h.9v.224h-1.166v-2.075h1.12v.225h-.852v.655h.806Z" transform="translate(-332.777 -258.192)" fill="#7c5a7e"/>
      <path id="Path_148415" data-name="Path 148415" d="M354.115,258.246a2.7,2.7,0,0,1,.514-.044.847.847,0,0,1,.6.169.519.519,0,0,1,.163.4.543.543,0,0,1-.39.528v.01a.515.515,0,0,1,.3.417,3.4,3.4,0,0,0,.16.571h-.277a2.812,2.812,0,0,1-.138-.5c-.062-.286-.172-.394-.415-.4h-.253v.9h-.267Zm.267.944h.274c.286,0,.468-.156.468-.394,0-.267-.194-.383-.477-.387a1.1,1.1,0,0,0-.264.024Z" transform="translate(-334.326 -258.184)" fill="#7c5a7e"/>
    </g>
  </g>
</svg>
