<svg xmlns="http://www.w3.org/2000/svg" xmlns:xlink="http://www.w3.org/1999/xlink" width="40.982" height="40.982" viewBox="0 0 40.982 40.982">
  <defs>
    <clipPath id="clip-path">
      <path id="SVGID" d="M352.057,228.835a.519.519,0,1,0,.519-.52.459.459,0,0,0-.519.52m1.039,0a.519.519,0,1,0,.52-.52.459.459,0,0,0-.52.52m1.038,0a.52.52,0,1,0,.52-.52.459.459,0,0,0-.52.52m1.039,0a.519.519,0,1,0,.519-.52.459.459,0,0,0-.519.52m1.039,0a.52.52,0,1,0,.52-.52.459.459,0,0,0-.52.52m-5.194-1.039a.519.519,0,1,0,.52-.519.459.459,0,0,0-.52.519m1.039,0a.519.519,0,1,0,.519-.519.459.459,0,0,0-.519.519m1.039,0a.519.519,0,1,0,.52-.519.459.459,0,0,0-.52.519m1.038,0a.52.52,0,1,0,.52-.519.459.459,0,0,0-.52.519m1.039,0a.519.519,0,1,0,.519-.519.459.459,0,0,0-.519.519m1.039,0a.52.52,0,1,0,.52-.519.459.459,0,0,0-.52.519m1.039,0a.519.519,0,1,0,.519-.519.459.459,0,0,0-.519.519m-6.233-1.039a.519.519,0,1,0,.52-.52.459.459,0,0,0-.52.52m1.039,0a.519.519,0,1,0,.519-.52.459.459,0,0,0-.519.52m1.039,0a.519.519,0,1,0,.52-.52.459.459,0,0,0-.52.52m1.038,0a.52.52,0,1,0,.52-.52.46.46,0,0,0-.52.52m1.039,0a.519.519,0,1,0,.519-.52.459.459,0,0,0-.519.52m1.039,0a.52.52,0,1,0,.52-.52.459.459,0,0,0-.52.52m1.039,0a.519.519,0,1,0,.519-.52.459.459,0,0,0-.519.52m-6.233-1.039a.519.519,0,1,0,.52-.519.459.459,0,0,0-.52.519m1.039,0a.519.519,0,1,0,.519-.519.459.459,0,0,0-.519.519m1.039,0a.519.519,0,1,0,.52-.519.459.459,0,0,0-.52.519m2.078,0a.519.519,0,1,0,.519-.519.459.459,0,0,0-.519.519m1.039,0a.52.52,0,1,0,.52-.519.459.459,0,0,0-.52.519m1.039,0a.519.519,0,1,0,.519-.519.459.459,0,0,0-.519.519m-6.233-1.038a.519.519,0,1,0,.52-.519.459.459,0,0,0-.52.519m1.039,0a.519.519,0,1,0,.519-.519.459.459,0,0,0-.519.519m1.039,0a.519.519,0,1,0,.52-.519.459.459,0,0,0-.52.519m2.078,0a.519.519,0,1,0,.519-.519.459.459,0,0,0-.519.519m1.039,0a.52.52,0,1,0,.52-.519.459.459,0,0,0-.52.519m1.039,0a.519.519,0,1,0,.519-.519.459.459,0,0,0-.519.519m-6.233-1.04a.519.519,0,1,0,.52-.52.459.459,0,0,0-.52.52m1.039,0a.519.519,0,1,0,.519-.52.459.459,0,0,0-.519.52m1.039,0a.519.519,0,1,0,.52-.52.459.459,0,0,0-.52.52m2.078,0a.519.519,0,1,0,.519-.52.459.459,0,0,0-.519.52m1.039,0a.52.52,0,1,0,.52-.52.459.459,0,0,0-.52.52m1.039,0a.519.519,0,1,0,.519-.52.459.459,0,0,0-.519.52m-6.233-1.039a.519.519,0,1,0,.52-.519.459.459,0,0,0-.52.519m1.039,0a.519.519,0,1,0,.519-.519.459.459,0,0,0-.519.519m1.039,0a.519.519,0,1,0,.52-.519.459.459,0,0,0-.52.519m2.078,0a.519.519,0,1,0,.519-.519.459.459,0,0,0-.519.519m1.039,0a.52.52,0,1,0,.52-.519.459.459,0,0,0-.52.519m1.039,0a.519.519,0,1,0,.519-.519.459.459,0,0,0-.519.519m-6.233-1.038a.519.519,0,1,0,.52-.52.459.459,0,0,0-.52.52m1.039,0a.519.519,0,1,0,.519-.52.459.459,0,0,0-.519.52m1.039,0a.519.519,0,1,0,.52-.52.459.459,0,0,0-.52.52m1.038,0a.52.52,0,1,0,.52-.52.46.46,0,0,0-.52.52m1.039,0a.519.519,0,1,0,.519-.52.459.459,0,0,0-.519.52m1.039,0a.52.52,0,1,0,.52-.52.459.459,0,0,0-.52.52m1.039,0a.519.519,0,1,0,.519-.52.459.459,0,0,0-.519.52m-6.233-1.039a.519.519,0,1,0,.52-.519.459.459,0,0,0-.52.519m1.039,0a.519.519,0,1,0,.519-.519.459.459,0,0,0-.519.519m1.039,0a.519.519,0,1,0,.52-.519.459.459,0,0,0-.52.519m1.038,0a.52.52,0,1,0,.52-.519.459.459,0,0,0-.52.519m1.039,0a.519.519,0,1,0,.519-.519.459.459,0,0,0-.519.519m1.039,0a.52.52,0,1,0,.52-.519.459.459,0,0,0-.52.519m1.039,0a.519.519,0,1,0,.519-.519.459.459,0,0,0-.519.519m-5.195-1.039a.519.519,0,1,0,.519-.52.459.459,0,0,0-.519.52m1.039,0a.519.519,0,1,0,.52-.52.459.459,0,0,0-.52.52m1.038,0a.52.52,0,1,0,.52-.52.46.46,0,0,0-.52.52m1.039,0a.519.519,0,1,0,.519-.52.459.459,0,0,0-.519.52m1.039,0a.52.52,0,1,0,.52-.52.459.459,0,0,0-.52.52" transform="translate(-351.018 -218.964)" fill="none"/>
    </clipPath>
    <linearGradient id="linear-gradient" x1="-11.967" y1="8.861" x2="-11.933" y2="8.861" gradientUnits="objectBoundingBox">
      <stop offset="0" stop-color="#fab428"/>
      <stop offset="0.114" stop-color="#fab428"/>
      <stop offset="0.25" stop-color="#f7a631"/>
      <stop offset="0.508" stop-color="#f1814c"/>
      <stop offset="0.858" stop-color="#e64676"/>
      <stop offset="0.887" stop-color="#e6417a"/>
      <stop offset="1" stop-color="#e6417a"/>
    </linearGradient>
    <clipPath id="clip-path-2">
      <path id="SVGID-2" data-name="SVGID" d="M313.21,210.589a.519.519,0,1,0,.52-.519.459.459,0,0,0-.52.519m1.039,0a.519.519,0,1,0,.519-.519.459.459,0,0,0-.519.519m1.039,0a.519.519,0,1,0,.519-.519.459.459,0,0,0-.519.519m2.078,0a.519.519,0,1,0,.519-.519.459.459,0,0,0-.519.519m1.038,0a.519.519,0,1,0,.52-.519.459.459,0,0,0-.52.519m1.039,0a.519.519,0,1,0,.519-.519.459.459,0,0,0-.519.519m-6.233-1.038a.519.519,0,1,0,.52-.519.459.459,0,0,0-.52.519m1.039,0a.519.519,0,1,0,.519-.519.459.459,0,0,0-.519.519m1.039,0a.519.519,0,1,0,.519-.519.459.459,0,0,0-.519.519m1.039,0a.52.52,0,1,0,.52-.519.459.459,0,0,0-.52.519m1.039,0a.519.519,0,1,0,.519-.519.459.459,0,0,0-.519.519m1.038,0a.519.519,0,1,0,.52-.519.459.459,0,0,0-.52.519m1.039,0a.519.519,0,1,0,.519-.519.459.459,0,0,0-.519.519m-6.233-1.039a.519.519,0,1,0,.52-.519.459.459,0,0,0-.52.519m1.039,0a.519.519,0,1,0,.519-.519.459.459,0,0,0-.519.519m1.039,0a.519.519,0,1,0,.519-.519.459.459,0,0,0-.519.519m1.039,0a.52.52,0,1,0,.52-.519.459.459,0,0,0-.52.519m1.039,0a.519.519,0,1,0,.519-.519.459.459,0,0,0-.519.519m1.038,0a.519.519,0,1,0,.52-.519.459.459,0,0,0-.52.519m1.039,0a.519.519,0,1,0,.519-.519.459.459,0,0,0-.519.519m-5.194-1.038a.519.519,0,1,0,.519-.52.459.459,0,0,0-.519.52m1.039,0a.519.519,0,1,0,.519-.52.459.459,0,0,0-.519.52m1.039,0a.52.52,0,1,0,.52-.52.459.459,0,0,0-.52.52m1.039,0a.519.519,0,1,0,.519-.52.459.459,0,0,0-.519.52m1.038,0a.519.519,0,1,0,.52-.52.459.459,0,0,0-.52.52" transform="translate(-313.21 -206.953)" fill="none"/>
    </clipPath>
    <linearGradient id="linear-gradient-2" x1="-18.575" y1="13.21" x2="-18.515" y2="13.21" gradientUnits="objectBoundingBox">
      <stop offset="0" stop-color="#fab428"/>
      <stop offset="0.147" stop-color="#f7a631"/>
      <stop offset="0.423" stop-color="#f1814c"/>
      <stop offset="0.799" stop-color="#e64676"/>
      <stop offset="0.83" stop-color="#e6417a"/>
      <stop offset="1" stop-color="#e6417a"/>
    </linearGradient>
    <clipPath id="clip-path-3">
      <path id="SVGID-3" data-name="SVGID" d="M333.153,228.839a.519.519,0,1,0,.52-.52.459.459,0,0,0-.52.52m1.039,0a.52.52,0,1,0,.52-.52.459.459,0,0,0-.52.52m1.039,0a.519.519,0,1,0,.519-.52.459.459,0,0,0-.519.52m1.038,0a.519.519,0,1,0,.519-.52.459.459,0,0,0-.519.52m1.039,0a.519.519,0,1,0,.519-.52.459.459,0,0,0-.519.52m2.078-.019a.52.52,0,1,0,.519-.5.456.456,0,0,0-.519.5m-7.272-1.02a.519.519,0,1,0,.519-.519.459.459,0,0,0-.519.519m1.039,0a.519.519,0,1,0,.52-.519.459.459,0,0,0-.52.519m1.039,0a.52.52,0,1,0,.52-.519.459.459,0,0,0-.52.519m1.039,0a.519.519,0,1,0,.519-.519.459.459,0,0,0-.519.519m1.038,0a.519.519,0,1,0,.519-.519.459.459,0,0,0-.519.519m1.039,0a.519.519,0,1,0,.519-.519.459.459,0,0,0-.519.519m2.078-.019a.52.52,0,1,0,.519-.5.456.456,0,0,0-.519.5m-7.272-1.02a.519.519,0,1,0,.519-.52.46.46,0,0,0-.519.52m1.039,0a.519.519,0,1,0,.52-.52.459.459,0,0,0-.52.52m1.039,0a.52.52,0,1,0,.52-.52.459.459,0,0,0-.52.52m1.039,0a.519.519,0,1,0,.519-.52.459.459,0,0,0-.519.52m1.038,0a.519.519,0,1,0,.519-.52.459.459,0,0,0-.519.52m1.039,0a.519.519,0,1,0,.519-.52.459.459,0,0,0-.519.52m2.078-.019a.52.52,0,1,0,.519-.5.456.456,0,0,0-.519.5m-7.272-1.02a.519.519,0,1,0,.519-.519.459.459,0,0,0-.519.519m1.039,0a.519.519,0,1,0,.52-.519.459.459,0,0,0-.52.519m1.039,0a.52.52,0,1,0,.52-.519.459.459,0,0,0-.52.519m2.078,0a.519.519,0,1,0,.519-.519.459.459,0,0,0-.519.519m1.039,0a.519.519,0,1,0,.519-.519.459.459,0,0,0-.519.519m1.039,0a.519.519,0,1,0,.52-.519.459.459,0,0,0-.52.519m-6.233-2.076a.52.52,0,0,1,0,1.038.519.519,0,0,0,1.039,0,.52.52,0,0,1,0-1.038.519.519,0,0,0-1.039,0m1.039,0a.52.52,0,0,1,0,1.038.519.519,0,0,0,1.039,0,.52.52,0,0,1,0-1.038.519.519,0,0,0-1.039,0m1.039,0a.52.52,0,0,1,0,1.038,1.16,1.16,0,1,0,0-1.038m2.078,0a.52.52,0,0,1,0,1.038,1.161,1.161,0,1,0,0-1.038m1.039,0a.52.52,0,0,1,0,1.038.519.519,0,0,0,1.039,0,.52.52,0,0,1,0-1.038.519.519,0,0,0-1.039,0m1.039,0a.52.52,0,0,1,0,1.038.519.519,0,0,0,1.039,0,.52.52,0,0,1,0-1.038.519.519,0,0,0-1.039,0m-6.233-1.038a.519.519,0,1,0,.519-.52.459.459,0,0,0-.519.52m1.039,0a.519.519,0,1,0,.52-.52.459.459,0,0,0-.52.52m1.039,0a.52.52,0,1,0,.52-.52.459.459,0,0,0-.52.52m2.078,0a.519.519,0,1,0,.519-.52.459.459,0,0,0-.519.52m1.039,0a.519.519,0,1,0,.519-.52.459.459,0,0,0-.519.52m1.039,0a.519.519,0,1,0,.52-.52.459.459,0,0,0-.52.52m-6.233-1.039a.519.519,0,1,0,.519-.519.459.459,0,0,0-.519.519m1.039,0a.519.519,0,1,0,.52-.519.459.459,0,0,0-.52.519m1.039,0a.52.52,0,1,0,.52-.519.459.459,0,0,0-.52.519m1.039,0a.519.519,0,1,0,.519-.519.459.459,0,0,0-.519.519m1.038,0a.519.519,0,1,0,.519-.519.459.459,0,0,0-.519.519m1.039,0a.519.519,0,1,0,.519-.519.459.459,0,0,0-.519.519m1.039,0a.519.519,0,1,0,.52-.519.459.459,0,0,0-.52.519m-6.233-1.039a.519.519,0,1,0,.519-.519.459.459,0,0,0-.519.519m1.039,0a.519.519,0,1,0,.52-.519.459.459,0,0,0-.52.519m1.039,0a.52.52,0,1,0,.52-.519.459.459,0,0,0-.52.519m1.039,0a.519.519,0,1,0,.519-.519.459.459,0,0,0-.519.519m1.038,0a.519.519,0,1,0,.519-.519.459.459,0,0,0-.519.519m1.039,0a.519.519,0,1,0,.519-.519.459.459,0,0,0-.519.519m1.039,0a.519.519,0,1,0,.52-.519.459.459,0,0,0-.52.519m-5.195-1.038a.519.519,0,1,0,.52-.519.459.459,0,0,0-.52.519m1.039,0a.52.52,0,1,0,.52-.519.459.459,0,0,0-.52.519m1.039,0a.519.519,0,1,0,.519-.519.459.459,0,0,0-.519.519m1.038,0a.519.519,0,1,0,.519-.519.459.459,0,0,0-.519.519m1.039,0a.519.519,0,1,0,.519-.519.459.459,0,0,0-.519.519" transform="translate(-332.114 -218.971)" fill="none"/>
    </clipPath>
    <linearGradient id="linear-gradient-3" x1="-10.855" y1="8.28" x2="-10.821" y2="8.28" gradientUnits="objectBoundingBox">
      <stop offset="0" stop-color="#fab428"/>
      <stop offset="0.162" stop-color="#fab428"/>
      <stop offset="0.28" stop-color="#f7a631"/>
      <stop offset="0.503" stop-color="#f1814c"/>
      <stop offset="0.805" stop-color="#e64676"/>
      <stop offset="0.83" stop-color="#e6417a"/>
      <stop offset="1" stop-color="#e6417a"/>
    </linearGradient>
    <clipPath id="clip-path-4">
      <path id="SVGID-4" data-name="SVGID" d="M336.88,210.589a.519.519,0,1,0,.52-.52.459.459,0,0,0-.52.52m1.039,0a.52.52,0,1,0,.52-.52.459.459,0,0,0-.52.52m1.039,0a.519.519,0,1,0,.519-.52.459.459,0,0,0-.519.52m-2.078-1.039a.519.519,0,1,0,.52-.519.459.459,0,0,0-.52.519m1.039,0a.52.52,0,1,0,.52-.519.459.459,0,0,0-.52.519m1.039,0a.519.519,0,1,0,.519-.519.459.459,0,0,0-.519.519m1.039,0a.519.519,0,1,0,.519-.519.459.459,0,0,0-.519.519m-3.117-1.039a.519.519,0,1,0,.52-.519.459.459,0,0,0-.52.519m1.039,0a.52.52,0,1,0,.52-.519.459.459,0,0,0-.52.519m1.039,0a.519.519,0,1,0,.519-.519.459.459,0,0,0-.519.519m1.039,0a.519.519,0,1,0,.519-.519.459.459,0,0,0-.519.519m-2.078-1.038a.52.52,0,1,0,.52-.52.459.459,0,0,0-.52.52m1.039,0a.519.519,0,1,0,.519-.52.459.459,0,0,0-.519.52m1.039,0a.519.519,0,1,0,.519-.52.459.459,0,0,0-.519.52" transform="translate(-336.88 -206.953)" fill="none"/>
    </clipPath>
    <linearGradient id="linear-gradient-4" x1="-25.68" y1="19.035" x2="-25.603" y2="19.035" xlink:href="#linear-gradient-3"/>
    <clipPath id="clip-path-5">
      <path id="SVGID-5" data-name="SVGID" d="M313.21,228.84a.519.519,0,1,0,.52-.52.459.459,0,0,0-.52.52m1.039,0a.519.519,0,1,0,.519-.52.459.459,0,0,0-.519.52m1.039,0a.519.519,0,1,0,.519-.52.459.459,0,0,0-.519.52m1.039,0a.52.52,0,1,0,.52-.52.459.459,0,0,0-.52.52m1.039,0a.519.519,0,1,0,.519-.52.459.459,0,0,0-.519.52m1.038,0a.519.519,0,1,0,.52-.52.459.459,0,0,0-.52.52M313.21,227.8a.519.519,0,1,0,.52-.52.459.459,0,0,0-.52.52m1.039,0a.519.519,0,1,0,.519-.52.459.459,0,0,0-.519.52m1.039,0a.519.519,0,1,0,.519-.52.459.459,0,0,0-.519.52m1.039,0a.52.52,0,1,0,.52-.52.459.459,0,0,0-.52.52m1.039,0a.519.519,0,1,0,.519-.52.459.459,0,0,0-.519.52m1.038,0a.519.519,0,1,0,.52-.52.459.459,0,0,0-.52.52m1.039,0a.519.519,0,1,0,.519-.52.459.459,0,0,0-.519.52m-6.233-1.039a.519.519,0,1,0,.52-.519.459.459,0,0,0-.52.519m1.039,0a.519.519,0,1,0,.519-.519.459.459,0,0,0-.519.519m1.039,0a.519.519,0,1,0,.519-.519.459.459,0,0,0-.519.519m1.039,0a.52.52,0,1,0,.52-.519.459.459,0,0,0-.52.519m1.039,0a.519.519,0,1,0,.519-.519.459.459,0,0,0-.519.519m1.038,0a.519.519,0,1,0,.52-.519.459.459,0,0,0-.52.519m1.039,0a.519.519,0,1,0,.519-.519.459.459,0,0,0-.519.519m-6.233-1.038a.519.519,0,1,0,.52-.52.459.459,0,0,0-.52.52m1.039,0a.519.519,0,1,0,.519-.52.459.459,0,0,0-.519.52m1.039,0a.519.519,0,1,0,.519-.52.459.459,0,0,0-.519.52m2.078,0a.519.519,0,1,0,.519-.52.459.459,0,0,0-.519.52m1.038,0a.519.519,0,1,0,.52-.52.459.459,0,0,0-.52.52m1.039,0a.519.519,0,1,0,.519-.52.459.459,0,0,0-.519.52m-6.233-1.039a.519.519,0,1,0,.52-.519.459.459,0,0,0-.52.519m1.039,0a.519.519,0,1,0,.519-.519.459.459,0,0,0-.519.519m1.039,0a.519.519,0,1,0,.519-.519.459.459,0,0,0-.519.519m2.078,0a.519.519,0,1,0,.519-.519.459.459,0,0,0-.519.519m1.038,0a.519.519,0,1,0,.52-.519.459.459,0,0,0-.52.519m1.039,0a.519.519,0,1,0,.519-.519.459.459,0,0,0-.519.519m-6.233-1.04a.519.519,0,1,0,.52-.519.459.459,0,0,0-.52.519m1.039,0a.519.519,0,1,0,.519-.519.459.459,0,0,0-.519.519m1.039,0a.519.519,0,1,0,.519-.519.459.459,0,0,0-.519.519m2.078,0a.519.519,0,1,0,.519-.519.459.459,0,0,0-.519.519m1.038,0a.519.519,0,1,0,.52-.519.459.459,0,0,0-.52.519m1.039,0a.519.519,0,1,0,.519-.519.459.459,0,0,0-.519.519M313.21,222.6a.519.519,0,1,0,.52-.519.459.459,0,0,0-.52.519m1.039,0a.519.519,0,1,0,.519-.519.459.459,0,0,0-.519.519m1.039,0a.519.519,0,1,0,.519-.519.459.459,0,0,0-.519.519m2.078,0a.519.519,0,1,0,.519-.519.459.459,0,0,0-.519.519m1.038,0a.519.519,0,1,0,.52-.519.459.459,0,0,0-.52.519m1.039,0a.519.519,0,1,0,.519-.519.459.459,0,0,0-.519.519m-6.233-1.039a.519.519,0,1,0,.52-.519.459.459,0,0,0-.52.519m1.039,0a.519.519,0,1,0,.519-.519.459.459,0,0,0-.519.519m1.039,0a.519.519,0,1,0,.519-.519.459.459,0,0,0-.519.519m2.078,0a.519.519,0,1,0,.519-.519.459.459,0,0,0-.519.519m1.038,0a.519.519,0,1,0,.52-.519.459.459,0,0,0-.52.519m1.039,0a.519.519,0,1,0,.519-.519.459.459,0,0,0-.519.519m-6.233-1.039a.519.519,0,1,0,.52-.52.459.459,0,0,0-.52.52m1.039,0a.519.519,0,1,0,.519-.52.459.459,0,0,0-.519.52m1.039,0a.519.519,0,1,0,.519-.52.459.459,0,0,0-.519.52m2.078,0a.519.519,0,1,0,.519-.52.459.459,0,0,0-.519.52m1.038,0a.519.519,0,1,0,.52-.52.459.459,0,0,0-.52.52m1.039,0a.519.519,0,1,0,.519-.52.459.459,0,0,0-.519.52m-6.233-1.038a.519.519,0,1,0,.52-.52.459.459,0,0,0-.52.52m1.039,0a.519.519,0,1,0,.519-.52.459.459,0,0,0-.519.52m1.039,0a.519.519,0,1,0,.519-.52.459.459,0,0,0-.519.52m2.078,0a.519.519,0,1,0,.519-.52.459.459,0,0,0-.519.52m1.038,0a.519.519,0,1,0,.52-.52.459.459,0,0,0-.52.52m1.039,0a.519.519,0,1,0,.519-.52.459.459,0,0,0-.519.52" transform="translate(-313.21 -218.969)" fill="none"/>
    </clipPath>
    <linearGradient id="linear-gradient-5" x1="-10.656" y1="8.861" x2="-10.621" y2="8.861" gradientUnits="objectBoundingBox">
      <stop offset="0" stop-color="#fab428"/>
      <stop offset="0.13" stop-color="#f7a631"/>
      <stop offset="0.375" stop-color="#f1814c"/>
      <stop offset="0.708" stop-color="#e64676"/>
      <stop offset="0.736" stop-color="#e6417a"/>
      <stop offset="1" stop-color="#e6417a"/>
    </linearGradient>
    <clipPath id="clip-path-6">
      <path id="SVGID-6" data-name="SVGID" d="M313.21,246.237a.519.519,0,1,0,.52-.519.459.459,0,0,0-.52.519m1.038,0a.52.52,0,1,0,.52-.519.46.46,0,0,0-.52.519M313.21,245.2a.519.519,0,1,0,.52-.52.459.459,0,0,0-.52.52m1.038,0a.52.52,0,1,0,.52-.52.459.459,0,0,0-.52.52m1.039,0a.519.519,0,1,0,.519-.52.459.459,0,0,0-.519.52m-2.078-1.039a.519.519,0,1,0,.52-.52.459.459,0,0,0-.52.52m1.038,0a.52.52,0,1,0,.52-.52.459.459,0,0,0-.52.52m1.039,0a.519.519,0,1,0,.519-.52.459.459,0,0,0-.519.52m-2.078-1.039a.519.519,0,1,0,.52-.52.459.459,0,0,0-.52.52m1.038,0a.52.52,0,1,0,.52-.52.459.459,0,0,0-.52.52m1.039,0a.519.519,0,1,0,.519-.52.459.459,0,0,0-.519.52" transform="translate(-313.21 -242.601)" fill="none"/>
    </clipPath>
    <linearGradient id="linear-gradient-6" x1="-26.387" y1="19.155" x2="-26.302" y2="19.155" xlink:href="#linear-gradient-2"/>
    <clipPath id="clip-path-7">
      <path id="SVGID-7" data-name="SVGID" d="M341.631,246.233a.519.519,0,1,0,.52-.519.459.459,0,0,0-.52.519m1.039,0a.519.519,0,1,0,.519-.519.459.459,0,0,0-.519.519m-1.039-1.038a.519.519,0,1,0,.52-.52.459.459,0,0,0-.52.52m1.039,0a.519.519,0,1,0,.519-.52.459.459,0,0,0-.519.52m1.039,0a.519.519,0,1,0,.52-.52.459.459,0,0,0-.52.52m-2.078-1.039a.519.519,0,1,0,.52-.52.459.459,0,0,0-.52.52m1.039,0a.519.519,0,1,0,.519-.52.459.459,0,0,0-.519.52m1.039,0a.519.519,0,1,0,.52-.52.459.459,0,0,0-.52.52m-2.078-1.039a.519.519,0,1,0,.52-.52.459.459,0,0,0-.52.52m1.039,0a.519.519,0,1,0,.519-.52.459.459,0,0,0-.519.52m1.039,0a.519.519,0,1,0,.52-.52.459.459,0,0,0-.52.52" transform="translate(-341.631 -242.597)" fill="none"/>
    </clipPath>
    <linearGradient id="linear-gradient-7" x1="-28.801" y1="19.156" x2="-28.716" y2="19.156" xlink:href="#linear-gradient-2"/>
  </defs>
  <g id="logo_2" data-name="logo 2" transform="translate(-1239.033 -34.999)">
    <g id="Group_129063" data-name="Group 129063" transform="translate(1264.922 50.993)">
      <g id="Group_129062" data-name="Group 129062" transform="translate(0 0)" clip-path="url(#clip-path)">
        <rect id="Rectangle_110033" data-name="Rectangle 110033" width="12.67" height="11.714" transform="translate(-4.706 7.395) rotate(-57.529)" fill="url(#linear-gradient)"/>
      </g>
    </g>
    <g id="Group_129065" data-name="Group 129065" transform="translate(1247.068 45.137)">
      <g id="Group_129064" data-name="Group 129064" transform="translate(0 0)" clip-path="url(#clip-path-2)">
        <rect id="Rectangle_110034" data-name="Rectangle 110034" width="7.41" height="8.366" transform="translate(-1.882 2.958) rotate(-57.529)" fill="url(#linear-gradient-2)"/>
      </g>
    </g>
    <g id="Group_129067" data-name="Group 129067" transform="translate(1256.035 50.997)">
      <g id="Group_129066" data-name="Group 129066" transform="translate(0 0)" clip-path="url(#clip-path-3)">
        <rect id="Rectangle_110035" data-name="Rectangle 110035" width="13.225" height="12.589" transform="matrix(0.537, -0.844, 0.844, 0.537, -4.705, 7.393)" fill="url(#linear-gradient-3)"/>
      </g>
    </g>
    <g id="Group_129069" data-name="Group 129069" transform="translate(1258.126 45.137)">
      <g id="Group_129068" data-name="Group 129068" transform="translate(0 0)" clip-path="url(#clip-path-4)">
        <rect id="Rectangle_110036" data-name="Rectangle 110036" width="5.737" height="5.737" transform="translate(-1.882 2.958) rotate(-57.529)" fill="url(#linear-gradient-4)"/>
      </g>
    </g>
    <g id="Group_129071" data-name="Group 129071" transform="translate(1247.068 50.995)">
      <g id="Group_129070" data-name="Group 129070" transform="translate(0 0)" clip-path="url(#clip-path-5)">
        <rect id="Rectangle_110037" data-name="Rectangle 110037" width="12.67" height="11.713" transform="translate(-4.706 7.395) rotate(-57.529)" fill="url(#linear-gradient-5)"/>
      </g>
    </g>
    <g id="Group_129073" data-name="Group 129073" transform="translate(1247.003 61.194)">
      <g id="Group_129072" data-name="Group 129072" transform="translate(0)" clip-path="url(#clip-path-6)">
        <rect id="Rectangle_110038" data-name="Rectangle 110038" width="5.18" height="4.861" transform="translate(-1.882 2.958) rotate(-57.529)" fill="url(#linear-gradient-6)"/>
      </g>
    </g>
    <g id="Group_129075" data-name="Group 129075" transform="translate(1260.316 61.192)">
      <g id="Group_129074" data-name="Group 129074" transform="translate(0 0)" clip-path="url(#clip-path-7)">
        <rect id="Rectangle_110039" data-name="Rectangle 110039" width="5.179" height="4.86" transform="matrix(0.537, -0.844, 0.844, 0.537, -1.882, 2.958)" fill="url(#linear-gradient-7)"/>
      </g>
    </g>
    <path id="Path_148408" data-name="Path 148408" d="M337.176,226.333H296.194V185.351h40.982Zm-38.738-2.243h36.495V187.595H298.438Z" transform="translate(942.838 -150.352)" fill="#fafafa"/>
    <g id="Group_129079" data-name="Group 129079" transform="translate(1252.352 69.342)">
      <path id="Path_148409" data-name="Path 148409" d="M325.071,259.008c-.01-.194-.023-.429-.021-.6h-.007c-.047.163-.106.337-.176.529l-.246.676h-.137l-.226-.664c-.066-.2-.122-.376-.161-.542h0c0,.173-.015.408-.027.616l-.037.6h-.171l.1-1.395h.229l.238.674c.058.172.106.324.141.47h.006c.035-.141.085-.294.146-.47l.249-.674h.23l.087,1.395h-.175Z" transform="translate(-323.859 -258.203)" fill="#fff"/>
      <path id="Path_148410" data-name="Path 148410" d="M330.974,258.879a.653.653,0,0,1-.648.735.639.639,0,0,1-.626-.707.662.662,0,0,1,.647-.732.635.635,0,0,1,.627.705m-1.082.023c0,.3.161.565.445.565s.447-.263.447-.579c0-.277-.145-.567-.445-.567s-.447.275-.447.581" transform="translate(-327.132 -258.174)" fill="#fff"/>
      <path id="Path_148411" data-name="Path 148411" d="M335.317,259.181l-.145.439h-.186l.474-1.394h.217l.476,1.394h-.192l-.149-.439Zm.457-.14-.137-.4c-.031-.091-.051-.174-.072-.255h0c-.021.083-.043.168-.071.252l-.136.4Z" transform="translate(-330.094 -258.203)" fill="#fff"/>
      <path id="Path_148412" data-name="Path 148412" d="M339.968,258.378h-.424v-.153h1.032v.153h-.426v1.241h-.182Z" transform="translate(-332.648 -258.203)" fill="#fff"/>
      <path id="Path_148413" data-name="Path 148413" d="M344.588,258.225v.583h.674v-.583h.182v1.395h-.182v-.654h-.674v.654h-.18v-1.395Z" transform="translate(-335.373 -258.203)" fill="#fff"/>
      <path id="Path_148414" data-name="Path 148414" d="M350.36,258.966h-.542v.5h.6v.151h-.784v-1.395h.753v.151h-.572v.441h.542Z" transform="translate(-338.304 -258.202)" fill="#fff"/>
      <path id="Path_148415" data-name="Path 148415" d="M354.115,258.231a1.814,1.814,0,0,1,.346-.029.569.569,0,0,1,.4.113.349.349,0,0,1,.109.266.365.365,0,0,1-.262.355v.007a.346.346,0,0,1,.2.28,2.285,2.285,0,0,0,.108.384h-.186a1.892,1.892,0,0,1-.093-.334c-.041-.192-.116-.265-.279-.271h-.17v.6h-.18Zm.18.634h.184c.192,0,.314-.105.314-.265,0-.179-.13-.258-.321-.26a.742.742,0,0,0-.178.016Z" transform="translate(-340.813 -258.19)" fill="#fff"/>
    </g>
  </g>
</svg>
